<?xml version="1.0" encoding="UTF-8" standalone="no"?>
<!-- Created with Inkscape (http://www.inkscape.org/) -->

<svg
   width="1000mm"
   height="750mm"
   viewBox="79 56.25 850 637.5"
   version="1.1"
   id="svg1"
   xml:space="preserve"
   inkscape:version="1.4.3 (0d15f75, 2025-12-25)"
   sodipodi:docname="Mapa-general-2.svg"
   xmlns:inkscape="http://www.inkscape.org/namespaces/inkscape"
   xmlns:sodipodi="http://sodipodi.sourceforge.net/DTD/sodipodi-0.dtd"
   xmlns="http://www.w3.org/2000/svg"
   xmlns:svg="http://www.w3.org/2000/svg"><sodipodi:namedview
     id="namedview1"
     pagecolor="#ffffff"
     bordercolor="#000000"
     borderopacity="0.25"
     inkscape:showpageshadow="2"
     inkscape:pageopacity="0.0"
     inkscape:pagecheckerboard="0"
     inkscape:deskcolor="#d1d1d1"
     inkscape:document-units="mm"
     inkscape:zoom="0.31000604"
     inkscape:cx="2001.5739"
     inkscape:cy="1303.2004"
     inkscape:window-width="1710"
     inkscape:window-height="955"
     inkscape:window-x="0"
     inkscape:window-y="39"
     inkscape:window-maximized="0"
     inkscape:current-layer="layer1" /><defs
     id="defs1"><clipPath
       clipPathUnits="userSpaceOnUse"
       id="clipPath2"><rect
         style="fill:none;stroke-width:20"
         id="rect3"
         width="966.41217"
         height="735.79114"
         x="-10.981957"
         y="0" /></clipPath><clipPath
       clipPathUnits="userSpaceOnUse"
       id="clipPath3"><rect
         style="fill:none;stroke-width:20"
         id="rect4"
         width="966.41217"
         height="735.79114"
         x="-10.981957"
         y="0" /></clipPath></defs><g
     inkscape:label="Capa 1"
     inkscape:groupmode="layer"
     id="layer1"><rect
       style="opacity:1;fill:none;fill-opacity:1;stroke:#ff6600;stroke-width:0.844761;stroke-dasharray:none;stroke-opacity:1"
       id="rect129"
       width="204.60724"
       height="190.17979"
       x="155.98022"
       y="207.03406"
       inkscape:label="" /><path
       style="opacity:1;fill:#cccccc;fill-opacity:1;stroke-width:21.3423"
       d="m 539.68489,181.21396 8.65792,0.89257 8.83641,3.83805 4.99839,2.40992 0.44627,2.49919 -11.60338,16.334 0.6248,1.96365 -1.60661,0.80331 -1.8744,0.44629 -2.58844,4.99838 -1.4281,0.44628 -1.87441,-1.60663 -10.62156,-1.69586 -4.01655,-1.60663 -1.42811,-3.83804 2.0529,-3.21325 -0.71407,-5.53393 2.58847,-4.46284 2.76694,-4.73061 2.40995,-0.62479 z"
       id="mendoza-1"
       inkscape:label="mendoza-1"><title
         id="title87">Mendoza</title></path><path
       style="fill:#b3b3b3;fill-opacity:0.497278;stroke-width:21.3423"
       d="m 346.61597,11.65734 c 0,1.604086 -1.60408,4.812259 0,4.812259 1.60409,0 -0.38904,-6.368451 0,-4.812259 2.11696,8.467859 0.5454,7.651477 2.40614,13.233712 1.02531,3.076005 -1.43751,7.952551 0,10.827584 0.72183,1.443677 2.88735,2.165514 3.60918,3.609192 1.67114,3.342301 -0.44014,11.5905 3.60919,15.639844 0.3523,0.352307 2.0549,-0.351251 2.40613,0 1.5625,1.5625 5.56668,4.363609 7.2184,6.015319 2.20562,2.205617 9.82502,-1.002553 12.03064,1.203064 0.80204,0.802043 1.60409,1.604085 2.40614,2.406138 0.56713,0.567129 -0.56714,1.839 0,2.406128 1.20036,1.200353 3.92571,1.836118 4.81227,3.609192 2.27207,4.544164 -2.11425,6.634608 -3.60923,9.624521 -0.96388,1.927773 -0.342,8.592442 -2.40609,9.624511 -2.26228,1.13113 -7.95243,-1.672103 -9.62455,0 -3.01397,3.013988 5.66387,23.709835 7.21841,25.264365 0.56711,0.56713 1.839,-0.56714 2.40614,0 0.31845,0.31845 0,3.1138 0,3.60919 0,2.59751 -0.24206,10.58553 1.20305,12.03064 1.06688,1.06688 3.36219,0.47803 4.81227,1.20307 1.61131,0.80566 1.66699,2.87007 2.40612,3.60919 1.40716,1.40719 21.07856,7.79498 22.85824,6.01532 1.60405,-1.60408 4.41122,-2.0051 6.01532,-3.60919 2.3109,-2.31092 2.19341,-20.23939 2.40613,-20.45209 0.28355,-0.28357 0.9195,0.28356 1.20305,0 1.84207,-1.84208 -0.88336,-9.94424 1.20305,-12.03065 2.3613,-2.3613 5.2508,-4.04773 7.21841,-6.015323 0.87675,-0.876762 0.0163,-4.828721 1.20305,-6.01532 8.36993,-8.369916 13.97024,-1.571324 20.45212,-4.812266 2.84692,-1.423476 5.62561,-2.211283 8.42146,-3.609191 1.00165,-0.500829 4.04913,0.763114 4.81223,0 1.39541,-1.395422 1.54672,-3.437056 2.40614,-6.01532 0.79662,-2.389865 5.48307,-7.889213 7.2184,-9.624521 1.42009,-1.420104 6.1989,0.693314 7.21838,1.203064 3.47046,1.735233 9.01495,-0.609568 12.03063,2.406127 0.56714,0.567129 -0.35869,1.688761 0,2.406128 2.44216,4.884286 17.10732,14.701187 20.45212,18.045979 2.14489,2.144877 5.01502,21.857913 8.42146,25.264353 0.59082,0.59084 11.87314,-2.24865 12.03064,-2.40613 0.28355,-0.28357 -0.28356,-0.9195 0,-1.20306 0.60152,-0.60154 3.00766,0.60153 3.60918,0 1.71344,-1.71346 7.23336,-4.82725 9.62454,-7.2184 0.401,-0.40102 0.80204,-3.20817 1.20305,-3.60919 2.7073,-2.70731 4.86789,-7.27402 7.2184,-9.624509 1.66169,-1.66172 14.22572,-1.097547 16.84288,-2.406138 5.60573,-2.802859 10.83688,-7.227667 14.4368,-10.827575 0.46874,-0.468762 4.0781,0 4.81225,0 4.95775,0 16.11407,-2.169026 20.45211,0 3.77541,1.887703 5.05765,5.05766 8.42143,8.421447 0.55616,0.556137 2.88284,-0.363181 3.60921,0 8.81067,4.405333 18.81585,4.595674 26.46742,8.421458 2.24574,1.122859 6.17575,-1.12286 8.42145,0 2.97327,1.486628 -0.41526,1.203064 2.40613,1.203064 1.53015,0 8.65058,-0.973944 9.62451,0 0.28359,0.283564 -0.40101,1.203063 0,1.203063 0.80205,0 0,-1.604085 0,-2.406127 0,-3.609192 0,-7.218394 0,-10.827586 0,-7.603675 -1.55756,-20.097579 2.40614,-24.061298 1.09672,-1.096715 9.1044,0 10.82759,0 12.28616,0 23.85379,-1.203064 37.295,-1.203064 3.20818,0 -0.40101,-0.401021 1.20307,1.203064 0.96513,0.96514 13.41987,1.389232 10.82757,-1.203064 -0.87785,-0.87785 -10.8181,-10.808656 -10.82757,-10.827578 -1.27639,-2.552798 -4.08557,-7.694761 -6.01534,-9.624518 -0.66898,-0.669004 -2.77555,-1.941927 -3.60919,-3.609195 -1.86945,-3.738947 -1.54666,-8.76506 -4.81227,-12.030647 -0.40101,-0.401022 -3.20814,-0.802043 -3.60918,-1.203065 -2.96204,-2.962034 -2.40613,-18.1525896 -2.40613,-13.233712"
       id="san-juan"
       inkscape:label="San Juan"><title
         id="title6">SAn Juan</title></path><path
       style="fill:#b3b3b3;fill-opacity:0.497278;stroke-width:21.3423"
       d="m 851.90314,8.0481459 2.40613,58.9501751 21.65519,-2.406128 24.06129,12.030639 8.42146,12.030649 c 2.00511,3.208171 4.32341,6.240694 6.01532,9.624522 0.25363,0.507252 -1.20306,0.635936 -1.20306,1.203064 0,1.336313 -0.8507,7.570753 0,8.421443 1.14425,1.14426 5.2148,1.60561 6.01533,2.40613 1.21043,1.21044 2.56385,2.485 4.81225,3.6092 2.24572,1.12286 6.17573,-1.12287 8.42145,0 2.74122,1.3706 8.11478,11.4173 9.62452,14.43678 1.64958,3.29914 -2.50741,13.13242 0,15.63984 0.28356,0.28357 0.9195,-0.28357 1.20306,0 0.81644,0.81644 1.20307,37.7484 1.20307,43.31033 0,1.53015 0.97394,8.65057 0,9.62451 -1.40358,1.40358 -3.40868,2.20562 -4.81226,3.6092 -0.56713,0.56713 0.56713,1.83899 0,2.40613 -1.79862,1.79862 -3.53958,7.18359 -6.01532,8.42145 -0.7984,0.3992 -9.61924,3.59863 -9.62452,3.60919 -1.64046,3.28093 0.17478,20.97646 1.20307,24.0613 2.09294,6.27882 0,35.1542 0,44.5134 0,3.33293 0.16748,5.68035 -1.20307,8.42145 -1.87924,3.75847 0,37.74663 0,45.71646 0,33.27851 -1.20306,65.88483 -1.20306,98.65131 h 169.63211 l 3.6092,-74.59002 14.4367,-2.40613 -1.203,-351.2948941"
       id="cordoba"
       inkscape:label="cordoba"><title
         id="title17">Cordoba</title></path><path
       style="fill:#b3b3b3;fill-opacity:0.497278;stroke-width:21.3423"
       d="M 838.66945,63.389119 836.26331,9.2512108 717.15991,8.0481459 720.7691,17.672664 c 0,0 7.2184,14.436777 8.42145,12.030647 1.20308,-2.406129 8.42145,10.827584 8.42145,10.827584 l 6.01532,9.624517 7.21841,7.218388 8.42144,12.030649 h 16.84292 l 9.6245,4.812255 7.2184,-2.406127 20.4521,-1.203064 4.81227,-4.812256 z"
       id="la-rioja"
       inkscape:label="la-rioja"><title
         id="title20">la-rioja</title></path><path
       style="fill:#b3b3b3;fill-opacity:0.497278;stroke-width:21.3423"
       d="m 1094.9222,451.97901 -172.03824,-2.4061 2.40613,127.52486 -334.45198,-2.40614 3.60921,190.08422 36.09191,1.20306 4.81228,7.2184 h 3.60918 l 2.40614,7.21837 4.81227,3.60922 2.40612,8.42145 447.54008,1.20306 z"
       id="la-pampa"
       inkscape:label="la-pampa"><title
         id="title18">la-pampa</title></path><path
       style="fill:#b3b3b3;fill-opacity:0.497278;stroke-width:21.3423"
       d="m 389.92629,657.70309 -8.42146,-12.03063 -12.03064,-13.23373 v -13.23372 l -16.8429,-16.84291 -2.40614,-9.62451 h -15.63983 v 10.82759 l -3.60919,1.20305 1.20306,21.65518 -18.04597,-1.20305 -1.20306,8.42145 -6.01532,2.4061 -16.84291,2.40614 2.40613,10.82759 6.01532,2.40613 -1.20306,4.81227 -14.43678,3.60918 1.20307,22.85824 4.81225,6.01532 -8.42145,3.60918 v 8.42145 l 2.40613,21.65518 -7.21839,9.62451 1.20306,8.42145 7.2184,7.2184 v 26.46741 l -7.2184,2.40614 1.20308,14.43677 303.1723,3.60919 -1.20307,-25.26433 h -10.82756 l -8.42146,-3.60922 -4.81227,-8.42145 h -15.63985 l -6.01532,-9.62451 -6.01532,2.40614 -10.82758,1.20305 v -6.01532 l -7.21838,1.20305 -6.01533,-4.81224 -9.62453,-3.60921 -6.01532,-7.21838 -8.42144,-7.2184 h -31.27969 l -18.04597,-9.6245 -15.63985,-14.43678 2.40614,-18.04596 -10.82759,-3.60921 -4.81224,-4.81224 -1.20308,-10.82759 z"
       id="neuquen"
       inkscape:label="neuquen"><title
         id="title19">neuquen</title></path><path
       style="fill:#b3b3b3;fill-opacity:0.497278;stroke-width:21.3423"
       d="m 592.04118,774.40036 v 18.04599 l 43.31033,2.40611 -2.40614,-6.01532 -3.60919,-2.40614 -2.40613,-7.21837 -24.06127,-1.20307 z"
       id="resto"
       inkscape:label="resto"><title
         id="title22">resto</title></path><path
       style="display:none;fill:#c8c4b7;fill-opacity:0.497278;stroke-width:20"
       d="m 485.80825,710.29726 -0.87691,-187.65877 161.35149,2.63073 2.63073,-9.64603 4.38454,-2.63072 -0.87691,-35.95333 7.0153,1.75384 -1.75385,-78.04501 -5.26145,-12.27675 -7.89218,-7.8922 -1.75384,-6.13836 -4.38454,-0.87691 -1.75382,-19.29202 -2.63073,-2.63075 -1.75381,-25.43037 5.26145,-5.26148 v -12.27675 l -4.38454,-7.01526 -2.63076,-6.13839 -3.50763,-7.89218 -8.76909,-6.13838 h -5.26147 l -0.87691,-20.16893 v -7.89219 h -7.89218 l -2.63075,-5.26146 -2.63073,-0.87691 -2.63072,-14.03057 -3.50764,-0.8769 0.87691,-34.1995 -6.13838,-1.75382 v -34.1995 l 7.01529,0.87691 -2.63072,-12.27674 -4.38457,-7.01529 -3.50764,-0.87691 -1.75381,-11.39983 -5.26146,-3.50764 v -10.52292 h -5.26147 l -0.87691,-12.27675 -9.64602,-0.87691 v -3.50764 l -25.43038,-3.507638 -7.8922,-5.261462 -6.13836,0.876912 -36.83024,-6.138371 -15.78438,16.661299 -8.76911,9.64601 -42.09169,0.87691 -2.63072,-21.92276 -12.27675,-7.89219 -5.26145,-5.261461 -6.13839,4.38455 -6.13836,8.769101 -11.39983,1.753823 -7.01527,3.507639 -7.8922,0.876911 -5.26146,9.646017 -2.63075,1.75382 1.75382,20.16893 -5.26145,0.87691 -2.63073,5.26146 -4.38454,0.87691 -11.39984,2.63073 -7.8922,4.38455 -12.27675,2.63074 1.75382,6.13837 4.38457,6.13837 3.50763,1.75382 3.50764,7.01528 5.26148,2.63073 -1.75382,9.64601 h -7.8922 l -2.63073,5.26146 2.63073,7.89219 v 10.52293 l 15.78438,5.26146 h 6.13838 l 2.63073,1.75382 2.63072,12.27674 3.50764,1.75382 -5.26145,5.26146 0.8769,10.52293 -4.38454,6.13837 -5.26148,0.87691 0.87691,22.79965 v 9.64602 l 0.87691,12.27675 5.26148,2.63072 -9.64602,1.75382 3.50763,13.15365 6.13839,7.89221 -0.87691,7.89217 -6.13839,3.50766 0.87691,4.38455 -6.13836,1.75381 v 5.26148 l -5.26148,2.63073 v 3.50763 l -10.5229,6.13836 -2.63075,5.26148 v 1.75382 l -3.50763,6.13836 v 3.50766 l -3.50764,4.38454 -5.26145,0.87691 0.87691,9.64602 2.63073,4.38454 -4.38455,3.50763 0.87691,7.0153 -6.13839,5.26145 v 6.13839 h -1.75381 l -8.76911,6.13836 4.38457,17.53819 -8.76912,5.26148 -2.63072,5.26145 2.63072,3.50764 1.75382,7.8922 -0.87691,13.15365 3.50764,3.50764 v 4.38454 l -4.38455,6.13839 2.63073,12.27674 2.63072,2.63073 1.75385,15.78438 -4.38457,0.87691 0.87691,12.27674 3.50766,3.50764 -7.0153,10.52293 5.26145,3.50763 4.38457,16.66129 5.26145,2.63075 7.0153,0.87691 0.87691,18.4151 7.01527,5.26146 1.75381,7.01529 5.26148,0.87691 2.63073,8.76911 11.39983,4.38454 0.87691,8.76911 4.38455,3.50764 7.8922,4.38454 4.38454,5.26148 1.75382,21.04583 2.63072,3.50763 10.52293,4.38457 h 28.06113 l 6.13838,4.38455 10.52291,2.63072 v 2.63073 l 13.15365,1.75381 0.87691,9.64602 15.78438,6.13839 11.39984,2.63073 9.64602,3.50763 13.15365,3.50763 5.26145,3.50767 z"
       id="mendoza"
       inkscape:label="mendoza"><title
         id="title16"> Mendoza</title></path><path
       style="fill:#b3b3b3;fill-opacity:0.497278;stroke-width:21.3423"
       d="m 684.44035,71.546573 v 12.164913 h -3.74304 l 0.93576,35.558974 5.61457,3.74307 0.93576,3.74305 1.87154,10.29338 5.61457,0.93577 -0.93576,8.42186 3.74305,4.67881 0.93575,7.4861 5.6146,2.80729 0.93576,21.52255 h -7.48611 v 22.45831 l 2.80727,4.67882 v 7.4861 l 3.74308,16.84372 v 11.22915 l 6.55032,5.61459 v 5.61457 l 5.61457,11.22916 8.42188,3.74305 v 18.71524 l 9.35764,8.42187 8.42184,7.48612 3.74305,12.1649 h 2.80731 l 2.80729,9.35763 0.93575,16.84373 -3.74304,4.6788 -2.80731,3.74308 v 14.97221 l 5.6146,5.61456 v 14.03644 l 4.6788,5.61457 0.93576,3.74308 4.67884,4.6788 0.93576,10.2934 5.61456,1.87152 v 4.6788 l 4.67881,7.48612 3.74307,88.89746 h -6.55036 l 0.93576,7.48609 -4.6788,0.93576 0.93576,35.559 137.55712,0.93577 4.67884,-1.87153 -1.87155,-354.65411 h 8.42187 l 0.93577,-4.67882 h 5.61456 v -13.10067 l 7.48611,-0.93576 -1.87151,-29.94442 5.61456,-2.80728 v -11.22916 h -5.61456 v -15.90796 l -18.71525,-0.93576 -7.48613,-8.42188 -0.93575,-21.522535 -13.10068,-2.807288 -0.93577,-3.743051 -8.42187,-1.871525 -1.87153,-2.807287 h -6.55032 v -3.743051 l -34.62322,-0.935762 -1.87155,2.807287 -1.87152,-1.871525 h -17.77949 v 2.807288 l -43.98085,1.871525 -4.6788,-8.421863 -30.88017,1.871525 -4.67883,-6.550338 -26.20134,0.935763 z"
       id="san-luis"
       inkscape:label="san-luis"><title
         id="title21">san-luis</title></path><path
       style="opacity:1;fill:#b3b3b3;fill-opacity:0.497278;stroke-width:20.4027"
       d="m 554.6935,114.34563 -12.54618,14.89855 -25.87641,-1.56828 -3.13655,-3.92067 v -21.95574 l -3.92066,2.3524 -13.33028,-9.409608 -3.13655,-7.057206 -3.92066,-0.784137 0.78414,3.920672 -7.84136,3.136535 -4.7048,3.920671 v 3.136533 l -5.48892,-0.78413 -4.70482,-3.136539 -4.70481,0.784136 h -0.78414 l -8.62546,10.977873 -6.27307,-1.56827 -0.78415,3.92067 -0.78411,6.27308 -8.62549,12.54614 v 3.92068 l 2.35241,5.48894 -0.78415,1.56826 2.35241,7.84133 -3.13656,3.92067 -10.97786,1.56828 -0.78412,3.13653 -2.35241,0.78414 -10.19376,-3.13654 h -6.27307 l -3.13655,3.92068 v 4.7048 l -1.56825,3.92067 -4.70481,-5.48894 -3.13652,-3.92067 -3.13655,2.35241 -0.78414,3.13653 v 4.70481 l 3.92069,3.92066 -1.56829,3.92067 1.56829,5.48895 3.13652,4.70481 2.3524,4.7048 3.92066,-4.7048 5.48896,1.56826 5.48895,-1.56826 4.70478,2.35239 h 7.05722 l 7.0572,3.13655 10.97788,-7.84135 8.62549,-5.48895 3.13653,-3.13653 0.78415,-4.7048 1.56826,-4.7048 3.92066,-2.35241 8.62548,7.05721 6.27307,6.27307 v 3.92067 l 3.13654,6.27308 3.13655,5.48894 4.70481,3.92067 7.84133,8.62546 6.27307,6.27309 h 11.76202 l 5.48892,-3.92068 7.84137,-10.19374 5.48892,-9.40961 h 2.35239 l 10.19377,-20.38749 -3.13656,-10.19375 7.05722,-7.0572 v -12.54614 l 9.40962,-9.40962 v -6.27307 z"
       id="mendoza-las-heras"
       inkscape:label="las-heras"><title
         id="title23">Las Heras</title></path><path
       id="mendoza-lavalle"
       style="opacity:1;fill:#b3b3b3;fill-opacity:0.497278;stroke-width:21.3423"
       inkscape:label="lavalle"
       d="m 603.28906,95.103521 -11.48332,5.741659 h -7.38221 l -3.2811,1.64055 -4.92111,3.28111 -4.92166,-0.82055 -2.46055,-3.28111 -6.56221,-1.64056 -4.1011,3.28111 4.1011,4.92166 -5.99808,4.66524 c 10e-5,0.0395 -1.3e-4,0.079 -5.5e-4,0.11855 0.0732,0.84285 0.178,1.68216 0.31212,2.51735 0.0443,0.16114 0.0842,0.32351 0.11855,0.48693 0.003,0.0215 0.0127,0.0625 0.0193,0.0954 0.0642,0.16698 0.15746,0.41751 0.16874,0.4588 0.10865,0.30048 0.19821,0.60701 0.30054,0.90989 0.12115,0.44356 0.33406,0.85498 0.52387,1.27219 0.15482,0.32993 0.26806,0.67345 0.35513,1.02403 0.18768,0.36696 0.37282,0.73517 0.54042,1.11227 0.27139,0.71306 0.48544,1.44531 0.54152,2.20248 0.45114,0.25514 0.80444,0.86592 0.79298,1.82969 -0.002,0.18687 -0.005,0.37399 -0.01,0.56082 -0.0109,0.43088 -0.0218,0.86294 -0.0712,1.29149 -0.064,0.52419 -0.15315,1.04564 -0.29668,1.55453 -0.17445,0.59698 -0.31758,1.21434 -0.71137,1.7139 -0.30645,0.36353 -0.64058,0.68241 -1.02182,0.96723 -0.51613,0.47606 -1.01878,0.96432 -1.52861,1.447 -0.72313,0.62109 -1.43973,1.30354 -2.33648,1.65875 -0.17976,-0.007 -0.36872,0.0224 -0.55145,0.0275 -0.0542,0.11877 -0.10787,0.2378 -0.16157,0.35678 -0.24737,0.55705 -0.48728,1.11226 -0.80345,1.63449 -0.26381,0.45683 -0.60428,0.86646 -0.86467,1.32457 -0.22575,0.33731 -0.38583,0.70536 -0.53767,1.07973 -0.11568,0.39405 -0.24102,0.78586 -0.35126,1.18175 -0.11685,0.48879 -0.13405,0.99547 -0.15828,1.49552 -0.0367,0.96312 -0.0404,1.92699 -0.0458,2.89068 -0.006,1.25707 -0.007,2.51427 -0.009,3.77134 0.031,0.95933 -0.03,1.91422 -0.12959,2.86753 -0.0873,0.79013 -0.44163,1.41343 -1.03782,1.92896 -0.38734,0.27977 -0.79334,0.53067 -1.17293,0.8211 -0.36688,0.33505 -0.74467,0.65865 -1.11226,0.99316 -0.38083,0.30858 -0.73969,0.64179 -1.12109,0.94958 -0.30727,0.24532 -0.6687,0.40743 -0.98488,0.63747 -0.42986,0.25397 -0.36165,0.22113 -0.64465,0.42021 -0.17963,0.12374 -0.34854,0.25658 -0.52994,0.37884 -0.0149,0.009 -0.0289,0.0163 -0.0419,0.0237 -0.0178,0.0258 -0.0454,0.0434 -0.0745,0.059 l 5.6e-4,5.5e-4 h 5.5e-4 v 5.5e-4 5.5e-4 5.6e-4 5.4e-4 5.6e-4 5.5e-4 c -0.007,0.0159 -0.0727,0.0703 -0.0954,0.0954 -0.009,0.16523 -0.13867,0.4089 -0.20238,0.58288 -0.11055,0.2556 -0.0819,0.48698 -0.0651,0.75382 0.0662,0.33257 0.13332,0.66103 0.24208,0.98157 0.0936,0.25979 0.13981,0.55262 0.29779,0.78582 0.1842,0.31606 0.3824,0.6217 0.53877,0.95566 0.16956,0.38541 0.24691,0.79719 0.29557,1.21263 0.031,0.27441 0.0388,0.55073 0.0452,0.82661 10e-4,0.0417 -0.003,0.0838 0.002,0.12519 3.6e-4,0.002 10e-4,0.004 10e-4,0.005 5.5e-4,-0.009 -0.003,-0.0733 10e-4,-0.0982 v -5.6e-4 -5.4e-4 -5.6e-4 h 5.5e-4 5.5e-4 c 0.002,0.004 0.006,0.0162 0.009,0.0216 0.0136,0.0459 0.0256,0.0925 0.0369,0.13897 0.0503,0.2061 0.047,0.20782 0.086,0.42406 0.0697,0.43485 0.0928,0.87464 0.10918,1.3141 0.0272,0.32213 0.0152,0.64173 -0.016,0.96061 0.14244,0.20528 0.23244,0.48688 0.37994,0.6849 0.17877,0.87327 0.0335,1.7688 -0.12297,2.63426 -0.13593,0.77996 -0.34299,1.53721 -0.67387,2.25652 -0.32472,0.61506 -0.74198,1.17598 -1.21539,1.68357 -0.27536,0.29974 -0.58032,0.5695 -0.85639,0.86852 -0.21283,0.27971 -0.39789,0.57986 -0.56799,0.88728 -0.16699,0.29161 -0.32866,0.58254 -0.42737,0.90493 -0.072,0.33408 -0.22539,0.64419 -0.31599,0.97274 -0.0415,0.21738 -0.058,0.4386 -0.0745,0.65898 -0.0155,0.23695 -0.0184,0.47401 -0.0216,0.71137 0.003,-0.04 0.005,-0.0596 0.009,-0.0656 l 5.5e-4,-5.4e-4 5.5e-4,-5.6e-4 v -5.5e-4 h 5.6e-4 5.4e-4 5.5e-4 l 5.6e-4,5.5e-4 5.5e-4,5.6e-4 c 0.007,0.0127 0.0167,0.0821 0.0331,0.12627 -0.006,-0.0294 -0.0124,-0.0593 -0.0188,-0.0888 l 5.6e-4,-5.6e-4 c 5.3e-4,-5.2e-4 0.002,-0.002 0.002,-0.002 l 5.6e-4,-5.6e-4 h 5.5e-4 5.6e-4 5.4e-4 v 5.6e-4 c 0.029,0.0516 0.0548,0.10511 0.0822,0.15772 0.0496,0.0699 0.069,0.0998 0.0695,0.10479 v 5.5e-4 h -5.5e-4 -5.5e-4 c -0.0179,-0.0108 -0.17188,-0.19772 -0.21893,-0.23216 -0.49411,-0.36147 -0.69802,-0.35318 -0.75051,-0.14559 -0.002,0.0986 -0.003,0.19756 -0.004,0.29614 0.0631,0.53238 0.39022,1.42332 0.39704,1.95211 h 1.12882 l 7.3822,0.82 14.76443,7.38222 v -5.74167 l 0.82,-4.1011 9.84331,-8.20221 4.10111,-0.82055 21.32608,0.82055 h 11.48386 l 4.10111,29.52884 74.64211,9.84277 0.82055,-4.10111 -0.82055,-12.30386 V 170.5664 l -4.10111,-5.74165 -3.28111,-9.84333 -1.64054,-10.66331 -5.74166,-11.48332 -6.56166,-7.3822 -5.74166,-4.92111 -0.82055,-4.10166 -3.2811,-4.92111 h -6.56166 l -9.02277,-0.82055 -7.38221,0.82055 -5.74165,-4.92165 -8.20277,-4.1011 -7.38221,-1.64055 z m -55.46501,54.547399 c -0.0244,0.055 -0.0495,0.10947 -0.0756,0.16378 -0.1261,0.29282 -0.22837,0.59508 -0.36451,0.88231 -0.0271,0.06 -0.0547,0.11973 -0.0827,0.17922 0.11328,-0.0758 0.22752,-0.15007 0.34245,-0.22278 0.0187,-0.0133 0.0401,-0.0529 0.0568,-0.0491 0.0132,-0.0472 0.0298,-0.0974 0.0496,-0.13401 0.0287,-0.27306 0.0538,-0.54607 0.0739,-0.81945 z m -0.14284,1.02845 c -0.0155,0.0202 -0.0291,0.0405 -0.0204,0.0585 l 5.6e-4,5.6e-4 v 5.5e-4 h 5.5e-4 5.5e-4 5.5e-4 v -5.5e-4 c 0.004,-0.005 0.0109,-0.028 0.0181,-0.059 z m -4.11819,2.88682 c -0.0933,0.0551 -0.18766,0.0834 -0.284,0.0601 l -0.62203,0.79959 c 0.061,-0.0457 0.11066,-0.0801 0.12518,-0.0838 0.20657,-0.14406 0.40722,-0.29612 0.63196,-0.41138 0.11504,-0.0807 0.23289,-0.1565 0.35182,-0.23051 -0.0333,-0.0188 -0.0666,-0.0391 -0.0998,-0.0606 -0.0369,-0.024 -0.0713,-0.0486 -0.10309,-0.0733 z"><title
         id="title24">lavalle</title></path><path
       style="opacity:1;fill:#b3b3b3;fill-opacity:0.497278;stroke-width:21.3423"
       d="m 411.35167,184.51016 20.50617,5.74172 13.94416,-6.56197 10.66319,-9.0227 2.46074,-9.84295 h 4.10122 l 7.38221,5.74172 2.46074,6.56196 v 4.92148 l 6.56197,4.10124 0.82024,8.20245 12.30369,6.56196 5.74172,6.56197 11.48343,1.64048 10.66321,-4.92147 5.7417,-6.56196 0.82026,-3.28098 v 9.84294 l -1.64049,2.46074 1.64049,4.92148 4.10121,1.64049 10.66322,1.64049 2.46073,2.46074 1.64049,6.56196 -4.92148,9.0227 v 4.92147 l -9.84296,9.0227 -7.3822,-3.28098 -4.10123,-0.82024 -12.30369,-9.0227 -3.28096,0.82024 -6.56197,-5.74172 -7.38221,-10.66318 -9.84296,-1.6405 -8.20246,-1.64049 -3.28097,-1.64049 -6.56196,-9.02271 h -4.92147 l -5.74173,12.30369 -9.0227,10.6632 -4.92147,9.84295 -4.10123,5.74171 -13.94418,-11.48344 -4.10122,6.56196 -8.20246,5.74172 -2.46074,-5.74172 -2.46073,-8.20245 -0.82025,-10.66319 -4.92147,-7.38221 7.3822,-1.64049 0.82025,-8.20246 0.82025,-6.56196 -4.10123,-7.38222 4.10123,-3.28098 z"
       id="mendoza-lujan-de-cuyo"
       inkscape:label="lujan-de-cuyo"><title
         id="title25">Luján de Cuyo</title></path><path
       style="opacity:1;fill:#b3b3b3;fill-opacity:0.497278;stroke-width:21.3423"
       d="m 610.67136,184.51016 h -13.94418 v 13.94418 l -15.58464,8.20245 -0.82026,13.94418 -13.12392,-6.56197 -7.38222,-4.10123 -6.56196,0.82025 -1.64051,-3.28098 6.56199,-8.20246 4.92145,-8.20245 v -9.84295 l 13.12394,-9.84295 34.45031,1.64049 1.64049,0.82024 z"
       id="mendoza-san-martin"
       inkscape:label="san-martin"><title
         id="title27">San Martín</title></path><path
       style="opacity:1;fill:#b3b3b3;fill-opacity:0.497278;stroke-width:21.3423"
       d="m 650.8634,206.65679 39.37179,3.28098 3.28097,8.20247 -0.82024,12.30368 3.28097,4.92147 v 11.48343 l 2.46074,4.92148 4.10125,6.56196 3.28097,5.74172 5.74173,4.10123 -0.82025,5.74172 4.92147,4.92147 4.10122,4.92148 c 0,0 0,11.48344 0,14.76441 0,3.28099 7.38221,10.66321 7.38221,10.66321 l 8.20248,6.56196 -0.82026,6.56196 4.92147,8.20246 -4.92147,8.20244 -4.10122,2.46075 -31.9896,-1.64049 -0.82022,-17.22516 -35.27057,2.46073 -2.46073,-36.09079 -17.22518,-1.64051 -0.82023,-45.93375 z"
       id="mendoza-la-paz"
       inkscape:label="la-paz"><title
         id="title28">La Paz</title></path><path
       style="opacity:1;fill:#b3b3b3;fill-opacity:0.497278;stroke-width:21.3423"
       d="m 650.04315,206.65679 -36.91105,-9.0227 -0.82025,-13.94418 -17.22515,0.82025 4.92149,9.0227 -1.64052,4.92148 -3.28097,4.92147 -12.30369,4.10123 v 106.63193 l -6.56196,2.46075 v 17.22513 l 4.92149,-1.64049 h 7.3822 l 2.46071,3.28101 52.49574,1.64048 h 4.92147 l 7.38222,-11.48344 4.92147,-0.82026 -0.82024,-36.91105 h -18.86565 v -45.1135 z"
       id="mendoza-santa-rosa"
       inkscape:label="santa-rosa"><title
         id="title29">Santa Rosa</title></path><path
       style="opacity:1;fill:#b3b3b3;fill-opacity:0.497278;stroke-width:21.3423"
       d="m 546.69219,222.24146 11.48347,-4.92147 7.38218,4.92147 14.76444,7.38221 v -9.0227 l -9.84296,-2.46073 -11.48344,-8.20247 -9.84295,0.82025 -3.28096,5.74172 z"
       id="mendoza-junin"
       inkscape:label="junin"><title
         id="title30">Junín</title></path><path
       style="opacity:1;fill:#b3b3b3;fill-opacity:0.497278;stroke-width:21.3423"
       d="m 580.32228,229.62367 0.82026,23.78712 -30.3491,3.28098 4.92147,27.06811 -45.1135,-19.6859 0.82024,-5.74172 6.56196,-0.82024 3.28097,-4.10123 4.92148,-4.92147 4.92147,-1.6405 2.46074,-1.64048 6.56196,-4.10124 4.10125,-14.76441 12.30367,-7.38222 6.56196,2.46074 7.38221,4.92148 z"
       id="mendoza-rivadavia"
       inkscape:label="rivadavia"><title
         id="title31">Rivadavia</title></path><path
       style="opacity:1;fill:#b3b3b3;fill-opacity:0.497278;stroke-width:21.3423"
       d="m 581.14254,253.41079 -30.3491,3.28098 4.92147,27.88836 -45.93376,-18.86566 v 5.74173 l -4.92148,5.74171 -4.92148,4.10124 -3.28096,0.82023 -3.281,5.74172 -5.7417,1.64049 -9.0227,0.82026 -0.82025,9.02269 h -8.20244 -7.38222 L 445.802,300.1648 h -11.48343 l -12.30369,-1.64051 -2.46074,13.12394 5.74171,5.74171 -9.02271,0.82025 1.64052,9.84296 3.28096,7.38222 3.281,4.92144 0.82023,4.10125 -7.38219,4.10122 8.20244,10.66318 5.74174,4.10125 2.46073,0.82022 4.10123,9.0227 4.10121,-0.82022 7.38222,5.7417 9.0227,8.20247 8.20246,8.20245 5.74171,0.82026 16.40491,-6.56197 13.94418,-4.92148 1.64048,-14.76442 6.56198,-17.22515 h 10.66319 9.02269 l 2.46074,-0.82025 4.92148,1.64048 0.82026,-7.38222 9.0227,-3.28096 12.30366,-2.46074 12.30369,-0.82026 0.82026,-3.28095 0.82022,-16.40492 8.20247,-2.46073 z"
       id="mendoza-san-carlos"
       inkscape:label="san-carlos"><title
         id="title32">San Carlos</title></path><path
       style="opacity:1;fill:#b3b3b3;fill-opacity:0.497278;stroke-width:21.3423"
       d="m 431.03758,246.02858 22.14664,1.64049 h 9.84293 l 9.0227,1.6405 5.74173,2.46073 9.84295,6.56196 10.66319,5.74172 9.02269,0.82025 4.10124,-4.92148 7.38219,-3.28098 6.56199,-4.10122 2.46074,-4.92148 -4.92147,-2.46073 -9.0227,-6.56197 -13.12395,-7.38222 -9.84295,-6.56196 -4.92148,-6.56195 -13.12392,-1.6405 -5.74171,-2.46074 -5.74173,-9.0227 -4.10121,0.82024 -4.10123,9.84295 -8.20247,9.84295 -4.10122,5.74171 z"
       id="mendoza-tupungato"
       inkscape:label="tupungato"><title
         id="title33">Tupungato</title></path><path
       style="opacity:1;fill:#b3b3b3;fill-opacity:0.497278;stroke-width:21.3423"
       d="m 431.03758,245.20834 16.40491,3.28098 12.30369,0.82025 h 10.66318 l 18.86565,9.84294 9.02271,3.28099 h 8.20246 l 0.82023,-1.6405 v 4.92147 l 3.281,4.10123 -0.82026,4.92148 -10.66319,7.3822 -9.84295,4.10124 -4.92147,5.74171 h -4.10123 l -5.74173,6.56196 -25.42761,0.82025 h -20.50613 l -7.38222,-0.82025 -0.82023,-10.66319 v -13.94417 l 4.92146,-8.20246 3.28099,-6.56196 5.74173,-4.10123 z"
       id="mendoza-tunuyan"
       inkscape:label="tunuyan"><title
         id="title34">Tunuyán</title></path><path
       style="opacity:1;fill:#b3b3b3;fill-opacity:0.497278;stroke-width:21.3423"
       d="m 732.06771,337.07585 3.281,9.84295 -0.82026,10.66317 1.64048,9.84296 3.28099,11.48344 -13.12393,-0.82026 -15.58466,9.0227 -24.60737,-4.92145 h -9.84295 l -7.38221,1.64048 h -15.58465 l -6.56197,48.39449 1.64048,15.58466 v 17.22517 l 6.56196,13.94417 6.56196,13.94418 4.92149,10.66317 14.76442,9.84295 6.56196,10.66322 14.76443,9.84292 3.28097,10.66322 3.28099,5.7417 v 9.02272 H 579.50202 l -4.10122,-20.50616 -9.84296,-16.40492 -6.56196,-22.96686 -17.22513,-6.56196 -16.40492,-14.76444 -30.34908,-3.28097 -15.58468,-3.28099 h -14.76441 l -10.66322,-14.7644 -13.12391,-14.76443 -11.48344,-4.92148 -28.7086,-21.32639 -7.38221,-7.38221 -11.48345,-3.28096 13.94418,-21.3264 8.20247,-9.84295 -1.64051,-4.10122 2.46074,-7.38221 6.56196,-6.56196 h 10.66321 l 47.57426,36.91104 31.16931,-11.48343 11.48343,-28.70861 27.06813,-2.46073 1.64048,-4.92149 30.34909,-5.7417 7.38221,-7.38222 h 8.20245 l 9.0227,3.28101 53.31595,0.82022 13.12395,-13.12392 31.16932,0.82023 3.28099,13.12395 z"
       id="mendoza-san-rafael"
       inkscape:label="san-rafael"><title
         id="title35">San Rafael</title></path><path
       style="opacity:1;fill:#b3b3b3;fill-opacity:0.497278;stroke-width:21.3423"
       d="m 738.62968,378.90837 0.82024,15.58466 1.64049,4.92147 13.94418,13.12395 1.64048,13.12392 5.74173,8.20244 0.82026,77.92335 h -4.92148 l 0.82022,34.4503 -6.56196,9.84296 -1.64047,5.7417 -41.83253,-3.28097 -2.46074,-11.48343 -5.74173,-13.94418 -9.84292,-7.38222 -13.94418,-17.22516 -10.6632,-3.28096 -18.04541,-35.27057 v -16.40491 l -3.28099,-22.96688 10.66321,-47.57425 12.30366,1.64048 18.86566,-0.82023 16.40491,2.46074 13.12395,-5.74173 14.7644,-4.92147 z"
       id="mendoza-general-alvear"
       inkscape:label="general-alvear"><title
         id="title36">General Alvear</title></path><path
       style="opacity:1;fill:#b3b3b3;fill-opacity:0.497278;stroke-width:21.3423"
       d="m 576.22105,556.90168 2.46074,200.96014 -18.04542,-11.48343 -22.14662,-6.56196 -18.86565,-4.92149 -13.12392,-4.10121 v -11.48344 l -16.40491,-1.64048 -0.82026,-4.10125 -15.58466,-6.56196 -17.22516,-0.82022 h -11.48344 l -15.58466,-8.20248 -3.28099,-26.24787 -14.76443,-9.84292 v -8.20247 l -13.12392,-4.92147 -3.28097,-12.3037 h -3.28099 l -8.20247,-10.66318 h -1.64049 l -3.28096,-25.42761 -12.30369,-0.82026 -4.92147,-19.68588 -3.281,-0.82025 4.92147,-11.48344 -1.64047,-4.92147 v -14.76444 h 2.46073 l -0.82026,-13.12391 -3.28096,-7.38222 -0.82025,-9.02269 3.28099,-7.38222 -2.46074,-7.38222 -0.82025,-9.84292 -5.74174,-21.32639 15.58468,-5.74173 -5.74173,-20.50613 9.84296,-7.38222 7.38222,-14.7644 1.64047,-18.86565 10.66322,4.10121 7.38219,9.0227 13.12395,9.84295 20.50612,9.0227 9.0227,6.56196 3.28099,6.56196 17.22515,17.22517 13.12395,7.38221 6.56196,-1.6405 41.83251,4.92147 13.12393,11.48344 19.6859,12.30369 9.84296,26.24787 5.7417,10.66318 z"
       id="mendoza-malargue"
       inkscape:label="malargue"><title
         id="title37">Malargue</title></path><ellipse
       style="opacity:1;fill:#ff6600;fill-opacity:1;stroke-width:16.5996"
       id="ellipse41"
       cx="602.44489"
       cy="234.54903"
       rx="3.6911621"
       ry="3.4860976" /><text
       xml:space="preserve"
       style="font-weight:300;font-size:16.9404px;line-height:85.9994px;font-family:'.Aqua Kana';-inkscape-font-specification:'.Aqua Kana Light';writing-mode:lr-tb;direction:ltr;opacity:1;fill:#000000;fill-opacity:0.497278;stroke-width:12.5322"
       x="567.70526"
       y="223.103"
       id="text42"><tspan
         sodipodi:role="line"
         id="tspan42"
         style="font-style:normal;font-variant:normal;font-weight:bold;font-stretch:normal;font-size:16.9404px;line-height:85.9994px;font-family:Arial;-inkscape-font-specification:'Arial, Bold';font-variant-ligatures:normal;font-variant-caps:normal;font-variant-numeric:normal;font-variant-east-asian:normal;fill:#000000;fill-opacity:1;stroke-width:12.5322"
         x="567.70526"
         y="223.103">Junín</tspan></text><text
       xml:space="preserve"
       style="font-weight:300;font-size:16.9404px;line-height:85.9994px;font-family:'.Aqua Kana';-inkscape-font-specification:'.Aqua Kana Light';writing-mode:lr-tb;direction:ltr;opacity:1;fill:#000000;fill-opacity:0.497278;stroke-width:12.5322"
       x="567.72626"
       y="182.16576"
       id="text45"><tspan
         sodipodi:role="line"
         id="tspan45"
         style="font-style:normal;font-variant:normal;font-weight:bold;font-stretch:normal;font-size:16.9404px;line-height:85.9994px;font-family:Arial;-inkscape-font-specification:'Arial, Bold';font-variant-ligatures:normal;font-variant-caps:normal;font-variant-numeric:normal;font-variant-east-asian:normal;fill:#000000;fill-opacity:1;stroke-width:12.5322"
         x="567.72626"
         y="182.16576">San Martín</tspan></text><text
       xml:space="preserve"
       style="font-weight:300;font-size:16.9404px;line-height:85.9994px;font-family:'.Aqua Kana';-inkscape-font-specification:'.Aqua Kana Light';writing-mode:lr-tb;direction:ltr;opacity:1;fill:#000000;fill-opacity:0.497278;stroke-width:12.5322"
       x="578.29022"
       y="138.13994"
       id="text46"><tspan
         sodipodi:role="line"
         id="tspan46"
         style="font-style:normal;font-variant:normal;font-weight:bold;font-stretch:normal;font-size:16.9404px;line-height:85.9994px;font-family:Arial;-inkscape-font-specification:'Arial, Bold';font-variant-ligatures:normal;font-variant-caps:normal;font-variant-numeric:normal;font-variant-east-asian:normal;fill:#000000;fill-opacity:1;stroke-width:12.5322"
         x="578.29022"
         y="138.13994">Lavalle</tspan></text><text
       xml:space="preserve"
       style="font-weight:300;font-size:16.9404px;line-height:85.9994px;font-family:'.Aqua Kana';-inkscape-font-specification:'.Aqua Kana Light';writing-mode:lr-tb;direction:ltr;opacity:1;fill:#000000;fill-opacity:0.497278;stroke-width:12.5322"
       x="446.08932"
       y="153.24281"
       id="text47"><tspan
         sodipodi:role="line"
         id="tspan47"
         style="font-style:normal;font-variant:normal;font-weight:bold;font-stretch:normal;font-size:16.9404px;line-height:85.9994px;font-family:Arial;-inkscape-font-specification:'Arial, Bold';font-variant-ligatures:normal;font-variant-caps:normal;font-variant-numeric:normal;font-variant-east-asian:normal;fill:#000000;fill-opacity:1;stroke-width:12.5322"
         x="446.08932"
         y="153.24281">Las Heras</tspan></text><text
       xml:space="preserve"
       style="font-weight:300;font-size:16.9404px;line-height:85.9994px;font-family:'.Aqua Kana';-inkscape-font-specification:'.Aqua Kana Light';writing-mode:lr-tb;direction:ltr;opacity:1;fill:#000000;fill-opacity:0.497278;stroke-width:12.5322"
       x="366.23486"
       y="201.39423"
       id="text48"><tspan
         sodipodi:role="line"
         id="tspan48"
         style="font-style:normal;font-variant:normal;font-weight:bold;font-stretch:normal;font-size:16.9404px;line-height:85.9994px;font-family:Arial;-inkscape-font-specification:'Arial, Bold';font-variant-ligatures:normal;font-variant-caps:normal;font-variant-numeric:normal;font-variant-east-asian:normal;fill:#000000;fill-opacity:1;stroke-width:12.5322"
         x="366.23486"
         y="201.39423">Luján de Cuyo</tspan></text><text
       xml:space="preserve"
       style="font-weight:300;font-size:16.9404px;line-height:85.9994px;font-family:'.Aqua Kana';-inkscape-font-specification:'.Aqua Kana Light';writing-mode:lr-tb;direction:ltr;opacity:1;fill:#000000;fill-opacity:0.497278;stroke-width:12.5322"
       x="445.20926"
       y="239.44424"
       id="text49"><tspan
         sodipodi:role="line"
         id="tspan49"
         style="font-style:normal;font-variant:normal;font-weight:bold;font-stretch:normal;font-size:16.9404px;line-height:85.9994px;font-family:Arial;-inkscape-font-specification:'Arial, Bold';font-variant-ligatures:normal;font-variant-caps:normal;font-variant-numeric:normal;font-variant-east-asian:normal;fill:#000000;fill-opacity:1;stroke-width:12.5322"
         x="445.20926"
         y="239.44424">Tupungato</tspan></text><text
       xml:space="preserve"
       style="font-weight:300;font-size:16.9404px;line-height:85.9994px;font-family:'.Aqua Kana';-inkscape-font-specification:'.Aqua Kana Light';writing-mode:lr-tb;direction:ltr;opacity:1;fill:#000000;fill-opacity:0.497278;stroke-width:12.5322"
       x="473.59021"
       y="324.85217"
       id="text51"><tspan
         sodipodi:role="line"
         id="tspan51"
         style="font-style:normal;font-variant:normal;font-weight:bold;font-stretch:normal;font-size:16.9404px;line-height:85.9994px;font-family:Arial;-inkscape-font-specification:'Arial, Bold';font-variant-ligatures:normal;font-variant-caps:normal;font-variant-numeric:normal;font-variant-east-asian:normal;fill:#000000;fill-opacity:0.949183;stroke-width:12.5322"
         x="473.59021"
         y="324.85217">San Carlos</tspan></text><text
       xml:space="preserve"
       style="font-weight:300;font-size:16.9404px;line-height:85.9995px;font-family:'.Aqua Kana';-inkscape-font-specification:'.Aqua Kana Light';writing-mode:lr-tb;direction:ltr;opacity:1;fill:#000000;fill-opacity:0.497278;stroke-width:18.3834"
       x="533.47485"
       y="262.01718"
       id="text52"><tspan
         sodipodi:role="line"
         id="tspan52"
         style="font-style:normal;font-variant:normal;font-weight:bold;font-stretch:normal;font-size:16.9404px;line-height:85.9995px;font-family:Arial;-inkscape-font-specification:'Arial, Bold';font-variant-ligatures:normal;font-variant-caps:normal;font-variant-numeric:normal;font-variant-east-asian:normal;fill:#000000;fill-opacity:1;stroke-width:18.3834"
         x="533.47485"
         y="262.01718">Rivadavia</tspan></text><text
       xml:space="preserve"
       style="font-weight:300;font-size:16.9404px;line-height:85.9994px;font-family:'.Aqua Kana';-inkscape-font-specification:'.Aqua Kana Light';writing-mode:lr-tb;direction:ltr;opacity:1;fill:#000000;fill-opacity:0.497278;stroke-width:12.5322"
       x="496.06488"
       y="425.31747"
       id="text53"><tspan
         sodipodi:role="line"
         id="tspan53"
         style="font-style:normal;font-variant:normal;font-weight:bold;font-stretch:normal;font-size:16.9404px;line-height:85.9994px;font-family:Arial;-inkscape-font-specification:'Arial, Bold';font-variant-ligatures:normal;font-variant-caps:normal;font-variant-numeric:normal;font-variant-east-asian:normal;fill:#000000;fill-opacity:1;stroke-width:12.5322"
         x="496.06488"
         y="425.31747">San Rafael</tspan></text><text
       xml:space="preserve"
       style="font-weight:300;font-size:16.9404px;line-height:85.9994px;font-family:'.Aqua Kana';-inkscape-font-specification:'.Aqua Kana Light';writing-mode:lr-tb;direction:ltr;opacity:1;fill:#000000;fill-opacity:0.497278;stroke-width:12.5322"
       x="667.74121"
       y="429.3396"
       id="text55"><tspan
         sodipodi:role="line"
         id="tspan55"
         style="font-style:normal;font-variant:normal;font-weight:bold;font-stretch:normal;font-size:16.9404px;line-height:85.9994px;font-family:Arial;-inkscape-font-specification:'Arial, Bold';font-variant-ligatures:normal;font-variant-caps:normal;font-variant-numeric:normal;font-variant-east-asian:normal;fill:#000000;fill-opacity:1;stroke-width:12.5322"
         x="667.74121"
         y="429.3396">General Alvear</tspan></text><text
       xml:space="preserve"
       style="font-weight:300;font-size:16.9404px;line-height:85.9994px;font-family:'.Aqua Kana';-inkscape-font-specification:'.Aqua Kana Light';writing-mode:lr-tb;direction:ltr;opacity:1;fill:#000000;fill-opacity:0.497278;stroke-width:12.5322"
       x="433.32309"
       y="569.34808"
       id="text56"><tspan
         sodipodi:role="line"
         id="tspan56"
         style="font-style:normal;font-variant:normal;font-weight:bold;font-stretch:normal;font-size:16.9404px;line-height:85.9994px;font-family:Arial;-inkscape-font-specification:'Arial, Bold';font-variant-ligatures:normal;font-variant-caps:normal;font-variant-numeric:normal;font-variant-east-asian:normal;fill:#000000;fill-opacity:1;stroke-width:12.5322"
         x="433.32309"
         y="569.34808">Malargue</tspan></text><text
       xml:space="preserve"
       style="font-weight:300;font-size:10.5407px;line-height:53.5107px;font-family:'.Aqua Kana';-inkscape-font-specification:'.Aqua Kana Light';writing-mode:lr-tb;direction:ltr;opacity:1;fill:#000000;fill-opacity:0.497278;stroke-width:12.5322"
       x="531.6369"
       y="193.77766"
       id="text57"><tspan
         sodipodi:role="line"
         id="tspan57"
         style="font-style:normal;font-variant:normal;font-weight:bold;font-stretch:normal;font-size:10.5407px;line-height:53.5107px;font-family:Arial;-inkscape-font-specification:'Arial, Bold';font-variant-ligatures:normal;font-variant-caps:normal;font-variant-numeric:normal;font-variant-east-asian:normal;fill:#000000;fill-opacity:1;stroke-width:12.5322"
         x="531.6369"
         y="193.77766">Gran</tspan></text><text
       xml:space="preserve"
       style="font-weight:300;font-size:10.5407px;line-height:53.5107px;font-family:'.Aqua Kana';-inkscape-font-specification:'.Aqua Kana Light';writing-mode:lr-tb;direction:ltr;opacity:1;fill:#000000;fill-opacity:0.497278;stroke-width:12.5322"
       x="524.04449"
       y="202.53815"
       id="text58"><tspan
         sodipodi:role="line"
         id="tspan58"
         style="font-style:normal;font-variant:normal;font-weight:bold;font-stretch:normal;font-size:10.5407px;line-height:53.5107px;font-family:Arial;-inkscape-font-specification:'Arial, Bold';font-variant-ligatures:normal;font-variant-caps:normal;font-variant-numeric:normal;font-variant-east-asian:normal;fill:#000000;fill-opacity:1;stroke-width:12.5322"
         x="524.04449"
         y="202.53815">Mendoza</tspan></text><ellipse
       style="opacity:1;fill:#ff6600;fill-opacity:1;stroke-width:16.5996"
       id="ellipse58"
       cx="651.96356"
       cy="253.24547"
       rx="3.6911621"
       ry="3.4860976" /><ellipse
       style="opacity:1;fill:#ff6600;fill-opacity:1;stroke-width:16.5996"
       id="ellipse59"
       cx="552.28027"
       cy="169.03532"
       rx="3.6911621"
       ry="3.4860976" /><ellipse
       style="opacity:1;fill:#ff6600;fill-opacity:1;stroke-width:16.5996"
       id="ellipse60"
       cx="531.10413"
       cy="169.92039"
       rx="3.6911621"
       ry="3.4860976" /><ellipse
       style="opacity:1;fill:#ff6600;fill-opacity:1;stroke-width:16.5996"
       id="ellipse61"
       cx="520.11206"
       cy="213.4151"
       rx="3.6911621"
       ry="3.4860976" /><ellipse
       style="opacity:1;fill:#ff6600;fill-opacity:1;stroke-width:16.5996"
       id="ellipse62"
       cx="490.78668"
       cy="246.98784"
       rx="3.6911621"
       ry="3.4860976" /><ellipse
       style="opacity:1;fill:#ff6600;fill-opacity:1;stroke-width:16.5996"
       id="ellipse63"
       cx="503.21597"
       cy="271.48065"
       rx="3.6911621"
       ry="3.4860976" /><ellipse
       style="opacity:1;fill:#ff6600;fill-opacity:1;stroke-width:16.5996"
       id="ellipse64"
       cx="498.17154"
       cy="300.30798"
       rx="3.6911621"
       ry="3.4860976" /><ellipse
       style="opacity:1;fill:#ff6600;fill-opacity:1;stroke-width:16.5996"
       id="ellipse65"
       cx="580.25562"
       cy="389.89081"
       rx="3.6911621"
       ry="3.4860976" /><ellipse
       style="opacity:1;fill:#ff6600;fill-opacity:1;stroke-width:16.5996"
       id="ellipse66"
       cx="564.11029"
       cy="233.14421"
       rx="3.6911621"
       ry="3.4860976" /><ellipse
       style="opacity:1;fill:#ff6600;fill-opacity:1;stroke-width:16.5996"
       id="ellipse67"
       cx="542.18158"
       cy="207.85767"
       rx="3.6911621"
       ry="3.4860976" /><ellipse
       style="opacity:1;fill:#ff6600;fill-opacity:1;stroke-width:16.5996"
       id="ellipse68"
       cx="653.6059"
       cy="452.22958"
       rx="3.6911621"
       ry="3.4860976" /><ellipse
       style="opacity:1;fill:#ff6600;fill-opacity:1;stroke-width:16.5996"
       id="ellipse69"
       cx="458.35733"
       cy="501.58224"
       rx="3.6911621"
       ry="3.4860976" /><ellipse
       style="opacity:1;fill:#ff6600;fill-opacity:1;stroke-width:16.5996"
       id="ellipse70"
       cx="572.94562"
       cy="190.49397"
       rx="3.6911621"
       ry="3.4860976" /><text
       xml:space="preserve"
       style="font-weight:300;font-size:27.1047px;line-height:137.599px;font-family:'.Aqua Kana';-inkscape-font-specification:'.Aqua Kana Light';writing-mode:lr-tb;direction:ltr;opacity:1;fill:#ffffff;fill-opacity:1;stroke-width:35.0212"
       x="767.47839"
       y="229.43459"
       id="text70"><tspan
         sodipodi:role="line"
         id="tspan70"
         style="font-style:normal;font-variant:normal;font-weight:bold;font-stretch:normal;font-size:27.1047px;line-height:137.599px;font-family:Arial;-inkscape-font-specification:'Arial, Bold';font-variant-ligatures:normal;font-variant-caps:normal;font-variant-numeric:normal;font-variant-east-asian:normal;fill:#ffffff;fill-opacity:1;stroke-width:35.0212"
         x="767.47839"
         y="229.43459">San Luis</tspan></text><text
       xml:space="preserve"
       style="font-weight:300;font-size:27.1047px;line-height:137.599px;font-family:'.Aqua Kana';-inkscape-font-specification:'.Aqua Kana Light';writing-mode:lr-tb;direction:ltr;opacity:1;fill:#ffffff;fill-opacity:1;stroke-width:35.0212"
       x="481.63297"
       y="48.753265"
       id="text71"><tspan
         sodipodi:role="line"
         id="tspan71"
         style="font-style:normal;font-variant:normal;font-weight:bold;font-stretch:normal;font-size:27.1047px;line-height:137.599px;font-family:'.Beirut PUA';-inkscape-font-specification:'.Beirut PUA Bold';fill:#ffffff;fill-opacity:1;stroke-width:35.0212"
         x="481.63297"
         y="48.753265">San Juan</tspan></text><text
       xml:space="preserve"
       style="font-weight:300;font-size:27.1047px;line-height:137.599px;font-family:'.Aqua Kana';-inkscape-font-specification:'.Aqua Kana Light';writing-mode:lr-tb;direction:ltr;opacity:1;fill:#ffffff;fill-opacity:1;stroke-width:35.0212"
       x="769.47217"
       y="654.90961"
       id="text72"><tspan
         sodipodi:role="line"
         id="tspan72"
         style="font-style:normal;font-variant:normal;font-weight:bold;font-stretch:normal;font-size:27.1047px;line-height:137.599px;font-family:'.Beirut PUA';-inkscape-font-specification:'.Beirut PUA Bold';fill:#ffffff;fill-opacity:1;stroke-width:35.0212"
         x="769.47217"
         y="654.90961">La Pampa</tspan></text><text
       xml:space="preserve"
       style="font-weight:300;font-size:27.1047px;line-height:137.599px;font-family:'.Aqua Kana';-inkscape-font-specification:'.Aqua Kana Light';writing-mode:lr-tb;direction:ltr;opacity:1;fill:#ffffff;fill-opacity:1;stroke-width:35.0212"
       x="341.7825"
       y="757.4436"
       id="text73"><tspan
         sodipodi:role="line"
         id="tspan73"
         style="font-style:normal;font-variant:normal;font-weight:bold;font-stretch:normal;font-size:27.1047px;line-height:137.599px;font-family:'.Beirut PUA';-inkscape-font-specification:'.Beirut PUA Bold';fill:#ffffff;fill-opacity:1;stroke-width:35.0212"
         x="341.7825"
         y="757.4436">Neuquén</tspan></text><text
       xml:space="preserve"
       style="font-weight:300;font-size:16.9404px;line-height:85.9994px;font-family:'.Aqua Kana';-inkscape-font-specification:'.Aqua Kana Light';writing-mode:lr-tb;direction:ltr;opacity:1;fill:#000000;fill-opacity:0.497278;stroke-width:12.5322"
       x="669.59918"
       y="242.07947"
       id="text75"><tspan
         sodipodi:role="line"
         id="tspan75"
         style="font-style:normal;font-variant:normal;font-weight:bold;font-stretch:normal;font-size:16.9404px;line-height:85.9994px;font-family:Arial;-inkscape-font-specification:'Arial, Bold';font-variant-ligatures:normal;font-variant-caps:normal;font-variant-numeric:normal;font-variant-east-asian:normal;fill:#000000;fill-opacity:1;stroke-width:12.5322"
         x="669.59918"
         y="242.07947">La Paz</tspan></text><text
       xml:space="preserve"
       style="font-weight:300;font-size:16.9404px;line-height:85.9999px;font-family:'.Aqua Kana';-inkscape-font-specification:'.Aqua Kana Light';writing-mode:lr-tb;direction:ltr;opacity:1;fill:#000000;fill-opacity:0.497278;stroke-width:13.2518"
       x="586.55365"
       y="287.84866"
       id="text76"><tspan
         sodipodi:role="line"
         style="font-style:normal;font-variant:normal;font-weight:bold;font-stretch:normal;font-size:16.9404px;line-height:85.9999px;font-family:Arial;-inkscape-font-specification:'Arial, Bold';font-variant-ligatures:normal;font-variant-caps:normal;font-variant-numeric:normal;font-variant-east-asian:normal;fill:#000000;fill-opacity:1;stroke-width:13.2518"
         x="586.55365"
         y="287.84866"
         id="tspan76">Santa</tspan></text><text
       xml:space="preserve"
       style="font-weight:300;font-size:16.9404px;line-height:85.9992px;font-family:'.Aqua Kana';-inkscape-font-specification:'.Aqua Kana Light';writing-mode:lr-tb;direction:ltr;opacity:1;fill:#000000;fill-opacity:0.497278;stroke-width:12.8138"
       x="592.68378"
       y="304.85098"
       id="text77"><tspan
         sodipodi:role="line"
         style="font-style:normal;font-variant:normal;font-weight:bold;font-stretch:normal;font-size:16.9404px;line-height:85.9992px;font-family:Arial;-inkscape-font-specification:'Arial, Bold';font-variant-ligatures:normal;font-variant-caps:normal;font-variant-numeric:normal;font-variant-east-asian:normal;fill:#000000;fill-opacity:1;stroke-width:12.8138"
         x="592.68378"
         y="304.85098"
         id="tspan77">Rosa</tspan></text><ellipse
       style="opacity:1;fill:#ff6600;fill-opacity:1;stroke-width:16.5996"
       id="ellipse77"
       cx="562.56873"
       cy="216.66179"
       rx="3.6911621"
       ry="3.4860976" /><text
       xml:space="preserve"
       style="font-weight:300;font-size:16.9404px;line-height:85.9995px;font-family:'.Aqua Kana';-inkscape-font-specification:'.Aqua Kana Light';writing-mode:lr-tb;direction:ltr;opacity:1;fill:#000000;fill-opacity:0.497278;stroke-width:18.3834"
       x="402.28647"
       y="281.12833"
       id="text78"><tspan
         sodipodi:role="line"
         id="tspan78"
         style="font-style:normal;font-variant:normal;font-weight:bold;font-stretch:normal;font-size:16.9404px;line-height:85.9995px;font-family:Arial;-inkscape-font-specification:'Arial, Bold';font-variant-ligatures:normal;font-variant-caps:normal;font-variant-numeric:normal;font-variant-east-asian:normal;fill:#000000;fill-opacity:1;stroke-width:18.3834"
         x="402.28647"
         y="281.12833">Tunuyán</tspan></text><path
       style="opacity:1;fill:#b3b3b3;fill-opacity:0.498039;stroke:none;stroke-width:1.05545;stroke-dasharray:none;stroke-opacity:1"
       d="m 170.2857,261.19423 45.18722,3.5211 6.45534,7.04219 6.45533,-8.2159 22.30028,-14.08435 h 7.04219 l 8.80273,-0.58686 4.69479,-9.38958 17.60548,3.52108 5.28163,-1.1737 7.62905,5.28165 14.08437,5.28163 25.82136,11.73699 1.76056,16.43176 -2.34741,4.10796 h -3.52109 v 8.21588 l -3.52111,0.58685 v 4.10794 l -2.34737,1.1737 v 2.93425 l -1.76056,0.58685 v 5.86847 l -7.62904,-2.93422 v 7.62904 l -1.17369,4.69479 2.3474,4.69479 -1.76056,4.10794 -5.28164,-1.17368 -1.76054,6.45531 -3.5211,4.10795 -1.1737,5.28165 v 2.93424 l -8.80273,7.62905 -7.0422,1.1737 v 8.80272 l -1.76054,5.86849 -68.0745,-9.97641 -1.17369,-15.84494 -11.15012,-2.93424 -2.34739,-5.28164 -1.17369,-2.34742 1.76054,-4.69478 7.04217,-1.76054 1.76054,-5.86849 4.10795,-11.73699 3.52109,-3.52112 -7.04219,-0.58683 h -22.30019 l -24.64758,-1.17369 v -5.86848 l -1.76054,-4.69482 -1.76054,-11.15013 0.58686,-4.69479 1.17368,-5.8685 z"
       id="mendoza-gran_Mendoza"
       inkscape:label="Gran Mendoza"
       inkscape:highlight-color="#3b80ee"><title
         id="title113">Gran Mendoza</title></path><text
       xml:space="preserve"
       style="font-weight:300;font-size:19.0827px;line-height:96.8746px;font-family:'.Aqua Kana';-inkscape-font-specification:'.Aqua Kana Light';writing-mode:lr-tb;direction:ltr;opacity:1;fill:#000000;fill-opacity:1;stroke-width:22.6881"
       x="181.79633"
       y="292.0506"
       id="text113"><tspan
         sodipodi:role="line"
         id="tspan113"
         style="font-style:normal;font-variant:normal;font-weight:bold;font-stretch:normal;font-size:19.0827px;line-height:96.8746px;font-family:Arial;-inkscape-font-specification:'Arial, Bold';font-variant-ligatures:normal;font-variant-caps:normal;font-variant-numeric:normal;font-variant-east-asian:normal;fill:#000000;fill-opacity:1;stroke-width:22.6881"
         x="181.79633"
         y="292.0506">Gran Mendoza</tspan></text><path
       style="opacity:0.443869;fill:#ba7545;fill-opacity:1;stroke:#ff6600;stroke-width:1.06711;stroke-dasharray:none;stroke-opacity:1"
       d="m 564.67745,217.50379 5.4398,2.41768"
       id="path125" /><ellipse
       style="opacity:1;fill:#ff6600;fill-opacity:1;stroke-width:18.6431"
       id="ellipse126"
       cx="270.82037"
       cy="310.50226"
       rx="4.1455879"
       ry="3.915277" /><ellipse
       style="opacity:1;fill:#ff6600;fill-opacity:1;stroke-width:18.6431"
       id="ellipse127"
       cx="283.78806"
       cy="317.31137"
       rx="4.1455879"
       ry="3.915277" /><ellipse
       style="opacity:1;fill:#ff6600;fill-opacity:1;stroke-width:18.6431"
       id="ellipse128"
       cx="257.24457"
       cy="307.92645"
       rx="4.1455879"
       ry="3.915277" /><path
       style="opacity:1;fill:#ba7545;fill-opacity:1;stroke:#ff6600;stroke-width:0.606826;stroke-dasharray:none;stroke-opacity:1"
       d="M 529.22489,203.48806 360.57737,249.65414"
       id="path129" /><path
       style="opacity:1;fill:none;fill-opacity:1;stroke:#ff6600;stroke-width:1.06711;stroke-dasharray:none;stroke-opacity:1"
       d="m 244.42033,208.37572 c -0.73168,0.97558 -3.17062,2.19504 -2.19505,2.92673 0.97558,0.73168 2.74042,-4.01747 2.19505,-2.92673 -1.30705,2.61409 -3.62706,5.82211 -5.12179,7.31682 -0.34491,0.34493 -1.11844,-0.34491 -1.46336,0 -0.18842,0.18843 -1.08487,5.82816 -1.46337,6.58516 -1.41507,2.83015 -3.90878,1.9641 -5.12178,4.3901 -1.66764,3.33527 1.03698,11.82801 -1.46337,16.82872 -0.29267,0.58534 0.29267,1.60971 0,2.19505 -0.34001,0.68003 -1.81245,3.27583 -2.19505,3.65842 -0.42408,0.42408 -2.50265,1.03928 -2.92674,1.46336 -0.19368,0.19369 0,1.89377 0,2.19506 0,3.97727 -0.73167,7.00053 -0.73167,10.97524 0,0.30129 0.19368,2.00137 0,2.19506 -0.71866,0.71864 -1.46337,1.97155 -1.46337,3.65842"
       id="path130" /><path
       style="opacity:1;fill:none;fill-opacity:1;stroke:#ff6600;stroke-width:1.09422;stroke-dasharray:none;stroke-opacity:1"
       d="m 359.99038,277.0621 c -13.10465,0.71574 -16.21277,3.11855 -19.2405,14.62814 -0.4951,1.88209 0.90336,4.86565 0,6.58266 -0.63778,1.21221 -2.20624,1.3653 -3.07848,2.19421 -2.46322,2.34093 -3.20785,8.28512 -2.30886,11.70252 0.28165,1.07068 2.72354,12.03983 1.53924,13.16533 -0.93811,0.89155 -5.74022,1.06679 -6.15696,1.46281 -0.3794,0.36056 -3.18803,2.50788 -3.84811,2.19424 -2.79564,-1.32842 -1.94629,-4.38847 -6.92657,-4.38847 -1.02615,0 -0.76962,-0.24379 -0.76962,0.73142"
       id="path131" /><path
       style="opacity:1;fill:none;fill-opacity:1;stroke:#ff6600;stroke-width:1.06711;stroke-dasharray:none;stroke-opacity:1"
       d="m 225.51469,352.29516 c -2.34476,-0.0665 -9.66241,4.15326 -14.63361,12.43863 -0.84954,1.41588 -0.84622,3.1558 -1.46336,4.39007 -0.10907,0.21818 -0.62261,-0.21812 -0.73168,0 -2.16353,4.32711 2.63705,-1.56492 -0.73167,2.92676 -0.82781,1.10371 -2.21689,1.74367 -2.92672,2.92674 -0.39682,0.66135 -0.26893,1.57802 -0.73169,2.19502 -2.65901,3.54537 -9.14098,3.65506 -12.43862,5.85348 -2.56491,1.70994 -4.18011,4.91179 -5.85347,6.58514 -0.41001,0.41002 -1.31361,-0.14975 -2.19504,0.73169 -2.38695,2.38696 -8.56703,1.2502 -10.24358,2.92674 -0.36583,0.36585 -0.36583,1.09751 -0.73167,1.46337 -0.20022,0.20021 -4.98539,0 -2.92674,0"
       id="path133" /><path
       style="opacity:1;fill:none;fill-opacity:1;stroke:#ff6600;stroke-width:0.802834;stroke-dasharray:none;stroke-opacity:1"
       d="m 252.98733,363.18134 c 0.55047,0.73396 0.91746,2.75239 1.65142,2.20191 0.73397,-0.55047 -2.398,-2.73518 -1.65142,-2.20191 2.00881,1.43486 3.56362,3.42911 5.50476,4.95427 1.67411,1.31538 8.81123,4.58791 11.00951,4.9543 2.36631,0.39437 8.61477,-0.92214 10.45905,0 3.70872,1.85435 4.40655,6.33184 8.25714,8.25714 1.22329,0.61164 3.65794,-0.55047 4.40381,-0.55047 0.60984,0 -2.62736,4.57924 -2.75237,4.95428 -0.8664,2.5992 -0.55048,5.87755 -0.55048,8.80761"
       id="path134" /><text
       xml:space="preserve"
       style="font-weight:300;font-size:27.1047px;line-height:137.599px;font-family:'.Aqua Kana';-inkscape-font-specification:'.Aqua Kana Light';writing-mode:lr-tb;direction:ltr;opacity:1;fill:#ffffff;fill-opacity:1;stroke-width:35.0212"
       x="999.43213"
       y="92.316956"
       id="text134"><tspan
         sodipodi:role="line"
         id="tspan134"
         style="font-style:normal;font-variant:normal;font-weight:bold;font-stretch:normal;font-size:27.1047px;line-height:137.599px;font-family:'.Beirut PUA';-inkscape-font-specification:'.Beirut PUA Bold';fill:#ffffff;fill-opacity:1;stroke-width:35.0212"
         x="999.43213"
         y="92.316956">Córdoba</tspan></text></g></svg>
