<?xml version="1.0" encoding="UTF-8" standalone="no"?>
<!-- Created with Inkscape (http://www.inkscape.org/) -->

<svg
   width="1000"
   height="750"
   viewBox="0 0 264.58333 198.4375"
   version="1.1"
   id="svg1"
   xml:space="preserve"
   inkscape:version="1.4.3 (0d15f75, 2025-12-25)"
   sodipodi:docname="Mapa-gran-mendoza.svg"
   xmlns:inkscape="http://www.inkscape.org/namespaces/inkscape"
   xmlns:sodipodi="http://sodipodi.sourceforge.net/DTD/sodipodi-0.dtd"
   xmlns="http://www.w3.org/2000/svg"
   xmlns:svg="http://www.w3.org/2000/svg"><sodipodi:namedview
     id="namedview1"
     pagecolor="#ffffff"
     bordercolor="#000000"
     borderopacity="0.25"
     inkscape:showpageshadow="2"
     inkscape:pageopacity="0.0"
     inkscape:pagecheckerboard="0"
     inkscape:deskcolor="#d1d1d1"
     inkscape:document-units="mm"
     inkscape:zoom="0.6926449"
     inkscape:cx="605.64944"
     inkscape:cy="417.24121"
     inkscape:window-width="1710"
     inkscape:window-height="955"
     inkscape:window-x="0"
     inkscape:window-y="39"
     inkscape:window-maximized="0"
     inkscape:current-layer="layer1" /><defs
     id="defs1"><inkscape:perspective
       sodipodi:type="inkscape:persp3d"
       inkscape:vp_x="0 : 526.18109 : 1"
       inkscape:vp_y="0 : 1000 : 0"
       inkscape:vp_z="744.09448 : 526.18109 : 1"
       inkscape:persp3d-origin="372.04724 : 350.78739 : 1"
       id="perspective9" /><inkscape:perspective
       id="perspective5572"
       inkscape:persp3d-origin="232.29701 : 361.64364 : 1"
       inkscape:vp_z="464.59402 : 542.46545 : 1"
       inkscape:vp_y="0 : 1000 : 0"
       inkscape:vp_x="0 : 542.46545 : 1"
       sodipodi:type="inkscape:persp3d" /><inkscape:perspective
       id="perspective6029"
       inkscape:persp3d-origin="0.5 : 0.33333333 : 1"
       inkscape:vp_z="1 : 0.5 : 1"
       inkscape:vp_y="0 : 1000 : 0"
       inkscape:vp_x="0 : 0.5 : 1"
       sodipodi:type="inkscape:persp3d" /><inkscape:perspective
       id="perspective6111"
       inkscape:persp3d-origin="0.5 : 0.33333333 : 1"
       inkscape:vp_z="1 : 0.5 : 1"
       inkscape:vp_y="0 : 1000 : 0"
       inkscape:vp_x="0 : 0.5 : 1"
       sodipodi:type="inkscape:persp3d" /><inkscape:perspective
       id="perspective3257"
       inkscape:persp3d-origin="0.5 : 0.33333333 : 1"
       inkscape:vp_z="1 : 0.5 : 1"
       inkscape:vp_y="0 : 1000 : 0"
       inkscape:vp_x="0 : 0.5 : 1"
       sodipodi:type="inkscape:persp3d" /><inkscape:perspective
       id="perspective3257-3"
       inkscape:persp3d-origin="0.5 : 0.33333333 : 1"
       inkscape:vp_z="1 : 0.5 : 1"
       inkscape:vp_y="0 : 1000 : 0"
       inkscape:vp_x="0 : 0.5 : 1"
       sodipodi:type="inkscape:persp3d" /><inkscape:perspective
       id="perspective3257-1"
       inkscape:persp3d-origin="0.5 : 0.33333333 : 1"
       inkscape:vp_z="1 : 0.5 : 1"
       inkscape:vp_y="0 : 1000 : 0"
       inkscape:vp_x="0 : 0.5 : 1"
       sodipodi:type="inkscape:persp3d" /><inkscape:perspective
       id="perspective3257-9"
       inkscape:persp3d-origin="0.5 : 0.33333333 : 1"
       inkscape:vp_z="1 : 0.5 : 1"
       inkscape:vp_y="0 : 1000 : 0"
       inkscape:vp_x="0 : 0.5 : 1"
       sodipodi:type="inkscape:persp3d" /><inkscape:perspective
       id="perspective3257-8"
       inkscape:persp3d-origin="0.5 : 0.33333333 : 1"
       inkscape:vp_z="1 : 0.5 : 1"
       inkscape:vp_y="0 : 1000 : 0"
       inkscape:vp_x="0 : 0.5 : 1"
       sodipodi:type="inkscape:persp3d" /><inkscape:perspective
       id="perspective3257-90"
       inkscape:persp3d-origin="0.5 : 0.33333333 : 1"
       inkscape:vp_z="1 : 0.5 : 1"
       inkscape:vp_y="0 : 1000 : 0"
       inkscape:vp_x="0 : 0.5 : 1"
       sodipodi:type="inkscape:persp3d" /><inkscape:perspective
       id="perspective3363"
       inkscape:persp3d-origin="0.5 : 0.33333333 : 1"
       inkscape:vp_z="1 : 0.5 : 1"
       inkscape:vp_y="0 : 1000 : 0"
       inkscape:vp_x="0 : 0.5 : 1"
       sodipodi:type="inkscape:persp3d" /><inkscape:perspective
       id="perspective3363-3"
       inkscape:persp3d-origin="0.5 : 0.33333333 : 1"
       inkscape:vp_z="1 : 0.5 : 1"
       inkscape:vp_y="0 : 1000 : 0"
       inkscape:vp_x="0 : 0.5 : 1"
       sodipodi:type="inkscape:persp3d" /><inkscape:perspective
       id="perspective3363-0"
       inkscape:persp3d-origin="0.5 : 0.33333333 : 1"
       inkscape:vp_z="1 : 0.5 : 1"
       inkscape:vp_y="0 : 1000 : 0"
       inkscape:vp_x="0 : 0.5 : 1"
       sodipodi:type="inkscape:persp3d" /><inkscape:perspective
       id="perspective3363-1"
       inkscape:persp3d-origin="0.5 : 0.33333333 : 1"
       inkscape:vp_z="1 : 0.5 : 1"
       inkscape:vp_y="0 : 1000 : 0"
       inkscape:vp_x="0 : 0.5 : 1"
       sodipodi:type="inkscape:persp3d" /><inkscape:perspective
       id="perspective3363-32"
       inkscape:persp3d-origin="0.5 : 0.33333333 : 1"
       inkscape:vp_z="1 : 0.5 : 1"
       inkscape:vp_y="0 : 1000 : 0"
       inkscape:vp_x="0 : 0.5 : 1"
       sodipodi:type="inkscape:persp3d" /><inkscape:perspective
       id="perspective3363-2"
       inkscape:persp3d-origin="0.5 : 0.33333333 : 1"
       inkscape:vp_z="1 : 0.5 : 1"
       inkscape:vp_y="0 : 1000 : 0"
       inkscape:vp_x="0 : 0.5 : 1"
       sodipodi:type="inkscape:persp3d" /><inkscape:perspective
       id="perspective3363-8"
       inkscape:persp3d-origin="0.5 : 0.33333333 : 1"
       inkscape:vp_z="1 : 0.5 : 1"
       inkscape:vp_y="0 : 1000 : 0"
       inkscape:vp_x="0 : 0.5 : 1"
       sodipodi:type="inkscape:persp3d" /><inkscape:perspective
       id="perspective3363-23"
       inkscape:persp3d-origin="0.5 : 0.33333333 : 1"
       inkscape:vp_z="1 : 0.5 : 1"
       inkscape:vp_y="0 : 1000 : 0"
       inkscape:vp_x="0 : 0.5 : 1"
       sodipodi:type="inkscape:persp3d" /><inkscape:perspective
       id="perspective3363-9"
       inkscape:persp3d-origin="0.5 : 0.33333333 : 1"
       inkscape:vp_z="1 : 0.5 : 1"
       inkscape:vp_y="0 : 1000 : 0"
       inkscape:vp_x="0 : 0.5 : 1"
       sodipodi:type="inkscape:persp3d" /><inkscape:perspective
       id="perspective3363-7"
       inkscape:persp3d-origin="0.5 : 0.33333333 : 1"
       inkscape:vp_z="1 : 0.5 : 1"
       inkscape:vp_y="0 : 1000 : 0"
       inkscape:vp_x="0 : 0.5 : 1"
       sodipodi:type="inkscape:persp3d" /><inkscape:perspective
       id="perspective3363-75"
       inkscape:persp3d-origin="0.5 : 0.33333333 : 1"
       inkscape:vp_z="1 : 0.5 : 1"
       inkscape:vp_y="0 : 1000 : 0"
       inkscape:vp_x="0 : 0.5 : 1"
       sodipodi:type="inkscape:persp3d" /><inkscape:perspective
       id="perspective3548"
       inkscape:persp3d-origin="0.5 : 0.33333333 : 1"
       inkscape:vp_z="1 : 0.5 : 1"
       inkscape:vp_y="0 : 1000 : 0"
       inkscape:vp_x="0 : 0.5 : 1"
       sodipodi:type="inkscape:persp3d" /><inkscape:perspective
       id="perspective3548-4"
       inkscape:persp3d-origin="0.5 : 0.33333333 : 1"
       inkscape:vp_z="1 : 0.5 : 1"
       inkscape:vp_y="0 : 1000 : 0"
       inkscape:vp_x="0 : 0.5 : 1"
       sodipodi:type="inkscape:persp3d" /><inkscape:perspective
       id="perspective3548-8"
       inkscape:persp3d-origin="0.5 : 0.33333333 : 1"
       inkscape:vp_z="1 : 0.5 : 1"
       inkscape:vp_y="0 : 1000 : 0"
       inkscape:vp_x="0 : 0.5 : 1"
       sodipodi:type="inkscape:persp3d" /><inkscape:perspective
       id="perspective3548-7"
       inkscape:persp3d-origin="0.5 : 0.33333333 : 1"
       inkscape:vp_z="1 : 0.5 : 1"
       inkscape:vp_y="0 : 1000 : 0"
       inkscape:vp_x="0 : 0.5 : 1"
       sodipodi:type="inkscape:persp3d" /><inkscape:perspective
       id="perspective3548-0"
       inkscape:persp3d-origin="0.5 : 0.33333333 : 1"
       inkscape:vp_z="1 : 0.5 : 1"
       inkscape:vp_y="0 : 1000 : 0"
       inkscape:vp_x="0 : 0.5 : 1"
       sodipodi:type="inkscape:persp3d" /><inkscape:perspective
       id="perspective9-8"
       inkscape:persp3d-origin="372.04724 : 350.78739 : 1"
       inkscape:vp_z="744.09448 : 526.18109 : 1"
       inkscape:vp_y="0 : 1000 : 0"
       inkscape:vp_x="0 : 526.18109 : 1"
       sodipodi:type="inkscape:persp3d" /><inkscape:perspective
       id="perspective5459"
       inkscape:persp3d-origin="0.5 : 0.33333333 : 1"
       inkscape:vp_z="1 : 0.5 : 1"
       inkscape:vp_y="0 : 1000 : 0"
       inkscape:vp_x="0 : 0.5 : 1"
       sodipodi:type="inkscape:persp3d" /><inkscape:perspective
       id="perspective5481"
       inkscape:persp3d-origin="0.5 : 0.33333333 : 1"
       inkscape:vp_z="1 : 0.5 : 1"
       inkscape:vp_y="0 : 1000 : 0"
       inkscape:vp_x="0 : 0.5 : 1"
       sodipodi:type="inkscape:persp3d" /><inkscape:perspective
       id="perspective5509"
       inkscape:persp3d-origin="0.5 : 0.33333333 : 1"
       inkscape:vp_z="1 : 0.5 : 1"
       inkscape:vp_y="0 : 1000 : 0"
       inkscape:vp_x="0 : 0.5 : 1"
       sodipodi:type="inkscape:persp3d" /><inkscape:perspective
       id="perspective9-7"
       inkscape:persp3d-origin="372.04724 : 350.78739 : 1"
       inkscape:vp_z="744.09448 : 526.18109 : 1"
       inkscape:vp_y="0 : 1000 : 0"
       inkscape:vp_x="0 : 526.18109 : 1"
       sodipodi:type="inkscape:persp3d" /><inkscape:perspective
       id="perspective7184"
       inkscape:persp3d-origin="0.5 : 0.33333333 : 1"
       inkscape:vp_z="1 : 0.5 : 1"
       inkscape:vp_y="0 : 1000 : 0"
       inkscape:vp_x="0 : 0.5 : 1"
       sodipodi:type="inkscape:persp3d" /><inkscape:perspective
       sodipodi:type="inkscape:persp3d"
       inkscape:vp_x="0 : 0.5 : 1"
       inkscape:vp_y="0 : 1000 : 0"
       inkscape:vp_z="1 : 0.5 : 1"
       inkscape:persp3d-origin="0.5 : 0.33333333 : 1"
       id="perspective3306" /><inkscape:perspective
       sodipodi:type="inkscape:persp3d"
       inkscape:vp_x="0 : 0.5 : 1"
       inkscape:vp_y="0 : 1000 : 0"
       inkscape:vp_z="1 : 0.5 : 1"
       inkscape:persp3d-origin="0.5 : 0.33333333 : 1"
       id="perspective3284" /><inkscape:perspective
       sodipodi:type="inkscape:persp3d"
       inkscape:vp_x="0 : 0.5 : 1"
       inkscape:vp_y="0 : 1000 : 0"
       inkscape:vp_z="1 : 0.5 : 1"
       inkscape:persp3d-origin="0.5 : 0.33333333 : 1"
       id="perspective3262" /><inkscape:perspective
       sodipodi:type="inkscape:persp3d"
       inkscape:vp_x="0 : 0.5 : 1"
       inkscape:vp_y="0 : 1000 : 0"
       inkscape:vp_z="1 : 0.5 : 1"
       inkscape:persp3d-origin="0.5 : 0.33333333 : 1"
       id="perspective3317" /><inkscape:perspective
       sodipodi:type="inkscape:persp3d"
       inkscape:vp_x="0 : 0.5 : 1"
       inkscape:vp_y="0 : 1000 : 0"
       inkscape:vp_z="1 : 0.5 : 1"
       inkscape:persp3d-origin="0.5 : 0.33333333 : 1"
       id="perspective3295" /><inkscape:perspective
       sodipodi:type="inkscape:persp3d"
       inkscape:vp_x="0 : 0.5 : 1"
       inkscape:vp_y="0 : 1000 : 0"
       inkscape:vp_z="1 : 0.5 : 1"
       inkscape:persp3d-origin="0.5 : 0.33333333 : 1"
       id="perspective3273" /><inkscape:perspective
       sodipodi:type="inkscape:persp3d"
       inkscape:vp_x="0 : 0.5 : 1"
       inkscape:vp_y="0 : 1000 : 0"
       inkscape:vp_z="1 : 0.5 : 1"
       inkscape:persp3d-origin="0.5 : 0.33333333 : 1"
       id="perspective3251" /><inkscape:perspective
       sodipodi:type="inkscape:persp3d"
       inkscape:vp_x="0 : 542.46545 : 1"
       inkscape:vp_y="0 : 1000 : 0"
       inkscape:vp_z="464.59402 : 542.46545 : 1"
       inkscape:persp3d-origin="232.29701 : 361.64364 : 1"
       id="perspective7111" /><inkscape:perspective
       sodipodi:type="inkscape:persp3d"
       inkscape:vp_x="0 : 0.5 : 1"
       inkscape:vp_y="0 : 1000 : 0"
       inkscape:vp_z="1 : 0.5 : 1"
       inkscape:persp3d-origin="0.5 : 0.33333333 : 1"
       id="perspective6146" /><inkscape:perspective
       sodipodi:type="inkscape:persp3d"
       inkscape:vp_x="0 : 0.5 : 1"
       inkscape:vp_y="0 : 1000 : 0"
       inkscape:vp_z="1 : 0.5 : 1"
       inkscape:persp3d-origin="0.5 : 0.33333333 : 1"
       id="perspective6111-4" /><inkscape:perspective
       sodipodi:type="inkscape:persp3d"
       inkscape:vp_x="0 : 0.5 : 1"
       inkscape:vp_y="0 : 1000 : 0"
       inkscape:vp_z="1 : 0.5 : 1"
       inkscape:persp3d-origin="0.5 : 0.33333333 : 1"
       id="perspective6029-8" /><inkscape:perspective
       sodipodi:type="inkscape:persp3d"
       inkscape:vp_x="0 : 542.46545 : 1"
       inkscape:vp_y="0 : 1000 : 0"
       inkscape:vp_z="464.59402 : 542.46545 : 1"
       inkscape:persp3d-origin="232.29701 : 361.64364 : 1"
       id="perspective5572-7" /><inkscape:perspective
       id="perspective9-9"
       inkscape:persp3d-origin="372.04724 : 350.78739 : 1"
       inkscape:vp_z="744.09448 : 526.18109 : 1"
       inkscape:vp_y="0 : 1000 : 0"
       inkscape:vp_x="0 : 526.18109 : 1"
       sodipodi:type="inkscape:persp3d" /><inkscape:perspective
       id="perspective3565"
       inkscape:persp3d-origin="0.5 : 0.33333333 : 1"
       inkscape:vp_z="1 : 0.5 : 1"
       inkscape:vp_y="0 : 1000 : 0"
       inkscape:vp_x="0 : 0.5 : 1"
       sodipodi:type="inkscape:persp3d" /><inkscape:perspective
       id="perspective4359"
       inkscape:persp3d-origin="0.5 : 0.33333333 : 1"
       inkscape:vp_z="1 : 0.5 : 1"
       inkscape:vp_y="0 : 1000 : 0"
       inkscape:vp_x="0 : 0.5 : 1"
       sodipodi:type="inkscape:persp3d" /><inkscape:perspective
       id="perspective4381"
       inkscape:persp3d-origin="0.5 : 0.33333333 : 1"
       inkscape:vp_z="1 : 0.5 : 1"
       inkscape:vp_y="0 : 1000 : 0"
       inkscape:vp_x="0 : 0.5 : 1"
       sodipodi:type="inkscape:persp3d" /><inkscape:perspective
       id="perspective4403"
       inkscape:persp3d-origin="0.5 : 0.33333333 : 1"
       inkscape:vp_z="1 : 0.5 : 1"
       inkscape:vp_y="0 : 1000 : 0"
       inkscape:vp_x="0 : 0.5 : 1"
       sodipodi:type="inkscape:persp3d" /></defs><g
     inkscape:label="Capa 1"
     inkscape:groupmode="layer"
     id="layer1"><path
       style="fill:#b3b3b3;fill-opacity:1;stroke-width:1.03898"
       d="m 100.72153,73.778676 -1.61875,1.618744 h -2.877765 l -3.417344,-0.539579 -3.417348,2.518041 0.719444,0.719444 3.057624,-0.899302 0.179859,1.798602 3.597206,1.798603 1.259022,1.438882 -2.338184,1.438884 v 3.417344 l 3.057625,0.539582 1.438881,7.733994 v 3.057624 H 102.7 l 3.41735,-0.719439 v 1.798603 l -1.07916,1.798597 -4.1368,1.7986 1.43889,7.73399 -0.89931,1.25902 1.25903,6.11525 1.07916,-0.17986 1.07917,-1.43887 3.41735,0.35971 -5.39582,8.99301 5.75553,-1.25902 2.51805,-0.35971 2.6979,-1.61875 4.85623,-0.35972 16.36729,1.43889 2.6979,-4.67637 3.23749,-0.71944 1.25902,-4.31666 0.89931,-0.53958 6.2951,-10.43189 0.89931,0.53958 4.13678,-7.014544 -15.82771,-4.676369 -4.85622,5.036083 -3.59721,0.359725 v -4.676367 -9.532595 l -0.71945,-1.798604 0.53959,-4.496505 -13.66939,-1.978463 -3.41734,0.71944 -3.95692,-1.259022 z"
       id="departamento-godoy-cruz"
       inkscape:label="godoy cruz"><title
         id="title7">godoy-cruz</title></path><path
       style="fill:#b3b3b3;fill-opacity:1;stroke-width:1.03898"
       d="m 142.26927,50.037119 0.17986,-2.697904 -0.53959,-2.158324 h -3.41733 l -3.77708,-0.539582 h -0.53958 l -0.35971,-3.597206 -3.59721,0.359721 h -3.23749 l -5.75552,1.618742 -7.55413,-0.359719 -39.749151,-0.719441 v 6.654829 l 8.813155,3.237486 2.877765,-1.978463 11.870779,3.777067 0.35972,1.618743 -1.079161,2.158322 -1.618743,3.237485 -2.697903,0.359721 -3.597207,1.438884 -5.395809,-1.618743 -3.057625,1.798602 -3.597206,-1.079161 -2.877765,1.798601 1.438881,5.935393 0.179862,0.899299 0.71944,0.179861 V 69.10231 l 4.496509,-1.978463 0.35972,1.259023 1.978463,-1.079162 6.65483,-1.978466 2.158325,1.618743 h 3.956925 l 0.359721,1.798605 2.338183,1.618742 1.618742,1.978463 5.75555,0.899303 3.59721,0.35972 3.05762,1.438881 4.4965,-0.71944 12.94995,2.697903 v -1.438881 l 3.59721,-5.036089 2.15832,-5.21595 1.61874,-7.73399 1.97846,-4.676368 3.23749,-1.618742 z"
       id="departamento-capital"
       inkscape:label="Capital"><title
         id="title11">Capital</title></path><path
       style="fill:#b3b3b3;fill-opacity:1;stroke-width:1.03898"
       d="M 161.23531,3.1490513 147.80324,2.565048 145.75922,8.4050783 143.42321,6.9450707 140.7952,5.193061 139.04319,4.3170567 h -2.04401 l -1.16801,1.4600075 -1.46001,0.8760044 -3.21201,-1.1680055 v 3.2120162 l -1.46001,1.168006 -1.46001,-0.292001 -1.168,6.1320307 -1.75202,-0.292001 -1.752,4.088021 v 3.796021 l -1.75202,0.876005 h -1.752 l -1.75201,2.044009 v 2.628014 l -0.292,-0.584002 -4.38002,0.292 -1.46001,-5.548029 -1.16801,-1.460006 v 0 l -1.46001,-1.460008 -0.584,-1.168006 -1.46001,-0.292004 -1.168,-1.168004 v 1.75201 l -2.044,1.460007 -1.16801,-0.584003 v 2.04401 l -0.87601,0.876004 1.16801,1.460008 -1.46001,1.752009 v 2.628014 l -0.58401,0.876005 0.292,6.132033 -9.928055,-2.628014 -1.460008,0.584002 h -3.212018 l -0.584002,3.212017 -2.628015,2.920017 -3.212017,0.584002 -4.38002,0.876004 45.260245,0.876006 7.59204,-1.460008 5.25602,0.292 v 2.628014 l 4.08803,0.292002 3.21201,0.584003 2.04401,1.752009 v 3.212017 l 7.00804,-3.796019 5.25602,-1.75201 -2.92001,-2.336011 3.21202,-1.752009 1.75201,-1.168008 2.92001,-1.168007 v -1.460007 l 5.54803,-1.752009 5.84004,0.584005 h 1.168 l 1.16801,-6.132034 3.50402,-0.876005 v -4.672023 h -0.58401 l 3.21201,-5.256028 0.58401,-2.336013 0.876,-2.04401 -0.876,-0.876005 v 1.460008 l -0.58401,2.628014 h -1.46 l -1.168,-1.460008 -2.33602,0.876005 -0.87601,2.33601 v 2.920018 l 1.46001,1.752009 -4.08801,1.168005 -3.21202,1.752009 -6.42404,2.044012 -3.50402,1.460007 -2.04401,0.584002 -5.25602,-11.680062 0.876,-4.964024 0.876,-5.2560267 2.92002,-1.7520097 z"
       id="departamento-las-heras"
       inkscape:label="Las Heras"><title
         id="title10">Las Heras</title></path><path
       style="fill:#b3b3b3;fill-opacity:1;stroke-width:1.03898"
       d="m 195.14819,39.964943 -3.23748,1.798601 -6.65484,0.899303 -4.67635,1.259021 -2.15833,-1.798601 v -2.877765 l -1.43888,0.179859 -1.25903,3.237486 h -1.61874 l -2.69791,-1.259023 -7.91384,1.798604 -0.35973,-1.079161 -4.4965,0.179859 -1.07916,1.259022 -5.21595,2.518046 -5.21596,1.978462 -7.19441,4.856228 -1.97846,5.755529 -2.33818,8.453434 -1.43889,3.777067 -3.05762,5.036087 v 2.338184 l -0.53958,3.956926 v 2.877766 11.690916 l 3.05763,-0.539582 5.03608,-4.316644 3.05763,0.359721 57.37543,16.187422 14.38882,5.75553 0.35973,-2.87776 -2.33819,-3.41735 0.53959,-1.97846 v -0.89931 l -1.79861,1.07916 -2.33818,-1.61874 1.43888,-2.6979 -0.8993,-1.7986 1.25902,-1.978466 -2.15833,-2.518042 -0.89929,1.97846 h -1.61875 l -1.25902,1.438884 -0.53958,-1.438884 1.43888,-1.259021 -5.93539,-7.554129 -1.61874,0.719441 -4.31665,-7.733993 1.43889,-1.25902 -0.71944,-0.719444 h -1.61875 l 0.17986,-2.697904 -1.07916,-0.179858 -0.71944,0.899299 -0.35972,1.798605 -2.69791,-1.618744 2.51805,-5.39581 -1.25903,-2.697903 -1.43887,-1.079161 1.61873,-0.35972 0.71945,-4.136788 -1.43889,-1.079161 1.07917,-0.539582 v -1.079161 l 1.07916,0.179859 0.53958,-0.53958 1.25902,-2.697904 -3.23749,-1.079163 1.61875,-1.618743 1.7986,1.079164 0.89931,-3.417347 v -0.899302 l 1.25902,-0.539579 1.97846,-6.29511 -2.33819,-0.719443 v -1.798602 l 1.7986,-0.899302 z"
       id="departamento-guaymallen"
       inkscape:label="Guaymallen"><title
         id="title8">Guaymallen</title></path><path
       style="fill:#b3b3b3;fill-opacity:1;stroke-width:1.03898"
       d="m 213.49394,114.4271 0.17986,1.97846 c 0,0 0,6.11526 -0.8993,6.11526 -0.89929,0 -3.41734,-1.25904 -3.41734,-1.25904 l -0.35972,-1.97846 -14.38883,-3.95693 -2.51804,6.29512 -1.61875,0.17986 -1.43887,2.15832 0.53958,2.69791 -1.25902,15.64784 -2.87777,-0.35972 v -5.39581 l 1.25902,-0.53958 -0.17986,-2.33818 -1.97847,-0.35972 -0.35971,-1.25902 -8.6333,-3.59721 0.35973,14.74854 9.71245,4.49651 c 0,0 1.7986,-1.07916 1.7986,-1.7986 0,-0.71944 0.17986,-2.87777 0.17986,-2.87777 l 4.67637,1.43889 -0.17986,1.07916 -0.71944,0.8993 v 2.69791 l -3.23749,-0.17987 c 0,0 2.69791,6.11526 -0.53958,6.8347 -3.23748,0.71944 -6.29511,0.71944 -6.29511,0.71944 l -1.25902,-5.93539 -2.51804,-0.17986 -0.17987,4.31664 -2.69789,-1.43888 -0.53959,-1.07916 -1.61874,-1.43889 -0.71944,-0.89929 -1.7986,1.7986 -0.35973,2.15832 -25.89988,-5.39581 -0.17986,1.7986 -2.6979,0.89931 h -2.69791 l 0.35973,3.41735 0.35971,1.97846 -1.97846,-0.35973 8.81316,-21.40337 -11.87078,-4.31665 4.31664,-10.61175 3.41735,-1.61875 1.43888,-3.5972 0.8993,-0.17986 5.57567,-10.79162 1.61874,-0.35972 3.77707,-6.29511 z"
       id="departamento-maipu"
       inkscape:label="Maipú"><title
         id="title9">Maipú</title></path><path
       style="fill:#b3b3b3;fill-opacity:1;stroke-width:1.03898"
       d="m 107.37637,127.37704 6.29512,-4.49651 h 4.85622 l 17.08673,1.07916 -2.15833,6.8347 11.51106,4.31664 -8.27357,20.32421 -5.39581,-2.51804 1.07916,-0.8993 2.87777,0.17986 v -3.23749 l -4.49651,-0.89929 -2.15832,5.3958 -4.31665,-1.07916 1.97846,-11.87078 5.93539,-7.01455 -5.93539,-1.97846 -5.93539,20.50407 -7.37427,-1.61874 -1.25901,2.6979 5.21594,3.41735 -1.97846,5.21595 -5.57568,-0.89931 v 1.7986 l 1.43889,1.61875 4.67637,1.61874 0.71944,5.57567 -1.25902,6.47497 -3.05763,-0.35972 v 1.61874 l -5.93539,-0.89929 -0.71944,3.41733 6.65483,2.69791 -3.95693,9.71245 -10.611771,0.17987 -8.093714,2.51804 -4.496509,-1.43888 0.539582,-3.41734 -1.438884,-1.61875 -5.935388,5.57568 -10.611757,1.07915 -2.158325,-0.17986 -0.539582,-1.97846 -6.115247,-1.61874 -0.539582,-1.61875 h -2.877765 l -1.079162,0.89931 -1.618742,-1.07916 3.956926,-6.65483 8.453434,3.5972 7.374273,0.53958 5.215949,-0.71945 2.158322,-2.87775 v -6.11526 l 6.115251,1.07917 7.194412,0.71943 1.798602,-1.97846 h 2.158324 l 9.712473,-10.25203 -3.05762,-1.97847 -0.89931,-2.87777 -1.97848,0.53959 -1.978462,8.27357 -2.518041,0.71945 -4.856229,-0.89931 -0.539582,-4.31664 3.417347,-1.07916 v -1.79861 l -6.115251,-1.43889 -0.539582,2.51806 h -3.597206 l 0.179862,8.81314 -3.417346,-0.17986 -2.697904,0.89931 -4.496509,-0.35972 0.359724,-1.79861 4.316646,-1.07916 -0.719441,-2.15832 -4.856228,1.43888 v 3.41735 l -3.417347,-0.35973 -0.899302,-1.25902 -1.798602,6.11526 -1.798605,-1.43889 -2.338183,-4.49651 -5.575669,0.71945 -1.259023,-3.05763 6.654834,-5.75553 5.755527,0.71944 0.899302,1.25902 4.136788,-4.49651 8.993013,-7.73399 3.057628,-2.6979 3.597205,-1.07916 z"
       id="departamento-lujan-de-cuyo"
       inkscape:label="Luján de Cuyo"><title
         id="title15">Luján de Cuyo</title></path><ellipse
       style="fill:#ff6600;fill-opacity:1;stroke-width:11.7173"
       id="ellipse1"
       cx="129.12128"
       cy="69.774536"
       rx="2.6055162"
       ry="2.4607651" /><ellipse
       style="fill:#ff6600;fill-opacity:1;stroke-width:11.7173"
       id="ellipse7"
       cx="145.09705"
       cy="66.77906"
       rx="2.6055162"
       ry="2.4607651" /><ellipse
       style="fill:#ff6600;fill-opacity:1;stroke-width:11.7173"
       id="ellipse8"
       cx="124.12885"
       cy="86.748856"
       rx="2.6055162"
       ry="2.4607651" /><ellipse
       style="fill:#ff6600;fill-opacity:1;stroke-width:11.7173"
       id="ellipse9"
       cx="165.5661"
       cy="135.6748"
       rx="2.6055162"
       ry="2.4607651" /><ellipse
       style="fill:#ff6600;fill-opacity:1;stroke-width:11.7173"
       id="ellipse10"
       cx="105.15755"
       cy="179.1091"
       rx="2.6055162"
       ry="2.4607651" /><ellipse
       style="fill:#ff6600;fill-opacity:1;stroke-width:11.7173"
       id="ellipse11"
       cx="127.95805"
       cy="37.115822"
       rx="2.6055162"
       ry="2.4607651" /><g
       id="layer1-4"
       transform="matrix(0.63759541,0,0,0.63759541,-287.85209,-77.009685)"><text
         xml:space="preserve"
         style="font-weight:300;font-size:12.0582px;line-height:61.2142px;font-family:'.Aqua Kana';-inkscape-font-specification:'.Aqua Kana Light';writing-mode:lr-tb;direction:ltr;opacity:1;fill:#000000;fill-opacity:0.497278;stroke-width:8.9204"
         x="664.07251"
         y="241.90242"
         id="text75"><tspan
           sodipodi:role="line"
           id="tspan75"
           style="font-style:normal;font-variant:normal;font-weight:bold;font-stretch:normal;font-size:12.0582px;line-height:61.2142px;font-family:Arial;-inkscape-font-specification:'Arial, Bold';font-variant-ligatures:normal;font-variant-caps:normal;font-variant-numeric:normal;font-variant-east-asian:normal;fill:#000000;fill-opacity:1;stroke-width:8.9204"
           x="664.07251"
           y="241.90242">Guaymallén</tspan></text><text
         xml:space="preserve"
         style="font-weight:300;font-size:12.0582px;line-height:61.2142px;font-family:'.Aqua Kana';-inkscape-font-specification:'.Aqua Kana Light';writing-mode:lr-tb;direction:ltr;opacity:1;fill:#000000;fill-opacity:0.497278;stroke-width:8.9204"
         x="604.5636"
         y="220.76109"
         id="text1"><tspan
           sodipodi:role="line"
           id="tspan1"
           style="font-style:normal;font-variant:normal;font-weight:bold;font-stretch:normal;font-size:12.0582px;line-height:61.2142px;font-family:Arial;-inkscape-font-specification:'Arial, Bold';font-variant-ligatures:normal;font-variant-caps:normal;font-variant-numeric:normal;font-variant-east-asian:normal;fill:#000000;fill-opacity:1;stroke-width:8.9204"
           x="604.5636"
           y="220.76109">Capital</tspan></text><text
         xml:space="preserve"
         style="font-weight:300;font-size:12.0582px;line-height:61.2142px;font-family:'.Aqua Kana';-inkscape-font-specification:'.Aqua Kana Light';writing-mode:lr-tb;direction:ltr;opacity:1;fill:#000000;fill-opacity:0.497278;stroke-width:8.9204"
         x="588.90338"
         y="367.96732"
         id="text2"><tspan
           sodipodi:role="line"
           style="font-style:normal;font-variant:normal;font-weight:bold;font-stretch:normal;font-size:12.0582px;line-height:61.2142px;font-family:Arial;-inkscape-font-specification:'Arial, Bold';font-variant-ligatures:normal;font-variant-caps:normal;font-variant-numeric:normal;font-variant-east-asian:normal;fill:#000000;fill-opacity:1;stroke-width:8.9204"
           x="588.90338"
           y="367.96732"
           id="tspan5">Luján de</tspan></text><text
         xml:space="preserve"
         style="font-weight:300;font-size:12.0582px;line-height:61.2142px;font-family:'.Aqua Kana';-inkscape-font-specification:'.Aqua Kana Light';writing-mode:lr-tb;direction:ltr;opacity:1;fill:#000000;fill-opacity:0.497278;stroke-width:8.9204"
         x="579.50726"
         y="270.09085"
         id="text3"><tspan
           sodipodi:role="line"
           id="tspan3"
           style="font-style:normal;font-variant:normal;font-weight:bold;font-stretch:normal;font-size:12.0582px;line-height:61.2142px;font-family:Arial;-inkscape-font-specification:'Arial, Bold';font-variant-ligatures:normal;font-variant-caps:normal;font-variant-numeric:normal;font-variant-east-asian:normal;fill:#000000;fill-opacity:1;stroke-width:8.9204"
           x="579.50726"
           y="270.09085">Godoy Cruz</tspan></text><text
         xml:space="preserve"
         style="font-weight:300;font-size:12.0582px;line-height:61.2142px;font-family:'.Aqua Kana';-inkscape-font-specification:'.Aqua Kana Light';writing-mode:lr-tb;direction:ltr;opacity:1;fill:#000000;fill-opacity:0.497278;stroke-width:8.9204"
         x="636.66711"
         y="169.86531"
         id="text4"><tspan
           sodipodi:role="line"
           id="tspan4"
           style="font-style:normal;font-variant:normal;font-weight:bold;font-stretch:normal;font-size:12.0582px;line-height:61.2142px;font-family:Arial;-inkscape-font-specification:'Arial, Bold';font-variant-ligatures:normal;font-variant-caps:normal;font-variant-numeric:normal;font-variant-east-asian:normal;fill:#000000;fill-opacity:1;stroke-width:8.9204"
           x="636.66711"
           y="169.86531">Las Heras</tspan></text><text
         xml:space="preserve"
         style="font-weight:300;font-size:12.0582px;line-height:61.2142px;font-family:'.Aqua Kana';-inkscape-font-specification:'.Aqua Kana Light';writing-mode:lr-tb;direction:ltr;opacity:1;fill:#000000;fill-opacity:0.497278;stroke-width:8.9204"
         x="598.29956"
         y="382.84457"
         id="text6"><tspan
           sodipodi:role="line"
           style="font-style:normal;font-variant:normal;font-weight:bold;font-stretch:normal;font-size:12.0582px;line-height:61.2142px;font-family:Arial;-inkscape-font-specification:'Arial, Bold';font-variant-ligatures:normal;font-variant-caps:normal;font-variant-numeric:normal;font-variant-east-asian:normal;fill:#000000;fill-opacity:1;stroke-width:8.9204"
           x="598.29956"
           y="382.84457"
           id="tspan6">Cuyo</tspan></text><text
         xml:space="preserve"
         style="font-weight:300;font-size:12.0582px;line-height:61.2142px;font-family:'.Aqua Kana';-inkscape-font-specification:'.Aqua Kana Light';writing-mode:lr-tb;direction:ltr;opacity:1;fill:#000000;fill-opacity:0.497278;stroke-width:8.9204"
         x="698.52509"
         y="313.93948"
         id="text7"><tspan
           sodipodi:role="line"
           style="font-style:normal;font-variant:normal;font-weight:bold;font-stretch:normal;font-size:12.0582px;line-height:61.2142px;font-family:Arial;-inkscape-font-specification:'Arial, Bold';font-variant-ligatures:normal;font-variant-caps:normal;font-variant-numeric:normal;font-variant-east-asian:normal;fill:#000000;fill-opacity:1;stroke-width:8.9204"
           x="698.52509"
           y="313.93948"
           id="tspan7">Maipú</tspan></text></g></g></svg>
