<?xml version="1.0" encoding="UTF-8" standalone="no"?>
<!-- Created with Inkscape (http://www.inkscape.org/) -->

<svg
   width="1000mm"
   height="750mm"
   viewBox="0 0 1000 750"
   version="1.1"
   id="svg1"
   xml:space="preserve"
   xmlns="http://www.w3.org/2000/svg"
   xmlns:svg="http://www.w3.org/2000/svg"><defs
     id="defs1"><clipPath
       clipPathUnits="userSpaceOnUse"
       id="clipPath2"><rect
         style="fill:none;stroke-width:20"
         id="rect3"
         width="966.41217"
         height="735.79114"
         x="-10.981957"
         y="0" /></clipPath><clipPath
       clipPathUnits="userSpaceOnUse"
       id="clipPath3"><rect
         style="fill:none;stroke-width:20"
         id="rect4"
         width="966.41217"
         height="735.79114"
         x="-10.981957"
         y="0" /></clipPath></defs><g
     id="layer1"><path
       style="fill:#c8c4b7;fill-opacity:0.497278;stroke-width:20"
       d="m 268.32139,7.8918056 c 0,1.5032011 -1.5032,4.5096034 0,4.5096034 1.5032,0 -0.36457,-5.9679227 0,-4.5096034 1.98382,7.9352924 0.5111,7.1702554 2.25481,12.4014084 0.96083,2.882547 -1.3471,7.452394 0,10.146609 0.67643,1.35288 2.70576,2.029319 3.38219,3.3822 1.56604,3.132095 -0.41246,10.861543 3.3822,14.656213 0.33014,0.330147 1.92566,-0.329163 2.2548,0 1.46423,1.464233 5.21658,4.089169 6.76442,5.637003 2.0669,2.066901 9.2071,-0.939501 11.274,1.1274 0.7516,0.751602 1.5032,1.503201 2.25481,2.254803 0.53146,0.531461 -0.53147,1.72334 0,2.2548 1.12487,1.124866 3.67881,1.720641 4.50961,3.382204 2.12918,4.25837 -1.98128,6.217345 -3.38223,9.019206 -0.90326,1.806535 -0.32049,8.052049 -2.25477,9.019207 -2.12,1.059992 -7.45228,-1.566942 -9.01923,0 -2.82442,2.824424 5.30765,22.218661 6.76442,23.675421 0.53144,0.53146 1.72334,-0.53147 2.25481,0 0.29842,0.29842 0,2.91797 0,3.3822 0,2.43415 -0.22683,9.91978 1.12739,11.274 0.99978,0.99978 3.15073,0.44797 4.50961,1.12741 1.50997,0.75499 1.56215,2.68956 2.2548,3.3822 1.31866,1.31868 19.75287,7.30473 21.42062,5.637 1.50317,-1.5032 4.13379,-1.879 5.637,-3.3822 2.16556,-2.16558 2.05546,-18.96648 2.2548,-19.16581 0.26572,-0.26573 0.86167,0.26573 1.12739,0 1.72622,-1.72622 -0.8278,-9.31882 1.12739,-11.274011 2.21279,-2.21279 4.92056,-3.793149 6.76442,-5.637004 0.82161,-0.821618 0.0153,-4.525026 1.12739,-5.637003 7.84352,-7.843507 13.09161,-1.472494 19.16583,-4.509604 2.66787,-1.333949 5.2718,-2.072208 7.89181,-3.382203 0.93866,-0.469331 3.79447,0.715124 4.50958,0 1.30765,-1.307655 1.44944,-3.220884 2.25481,-5.637003 0.74652,-2.239552 5.13823,-7.393038 6.76442,-9.019207 1.33077,-1.330788 5.80903,0.649714 6.76439,1.127401 3.2522,1.626105 8.44798,-0.571233 11.274,2.2548 0.53147,0.531463 -0.33613,1.58255 0,2.254803 2.28856,4.577098 16.03139,13.776592 19.16583,16.911013 2.00999,2.009986 4.69961,20.483218 7.89181,23.675418 0.55366,0.55368 11.12641,-2.10723 11.274,-2.2548 0.26572,-0.26574 -0.26572,-0.86167 0,-1.1274 0.56369,-0.56371 2.8185,0.5637 3.38219,0 1.60568,-1.60569 6.77844,-4.52365 9.01923,-6.764411 0.37578,-0.375798 0.7516,-3.006402 1.12739,-3.382201 2.53703,-2.537044 4.56173,-6.816542 6.76441,-9.019206 1.55718,-1.557205 13.33103,-1.028518 15.78359,-2.254803 5.25317,-2.626582 10.15532,-6.773098 13.52883,-10.146607 0.43926,-0.439277 3.82162,0 4.50959,0 4.64595,0 15.10062,-2.032606 19.16583,0 3.53796,1.768986 4.73956,4.739574 7.89178,7.891807 0.52118,0.521155 2.70153,-0.340347 3.38222,0 8.25654,4.128269 17.63247,4.306638 24.80281,7.891803 2.1045,1.052243 5.78734,-1.05224 7.89181,0 2.78627,1.393132 -0.38915,1.127403 2.2548,1.127403 1.43391,0 8.10652,-0.912691 9.0192,0 0.26575,0.265729 -0.37579,1.1274 0,1.1274 0.7516,0 0,-1.503201 0,-2.254803 0,-3.3822 0,-6.764403 0,-10.146606 0,-7.125462 -1.4596,-18.833592 2.25481,-22.548017 1.02774,-1.027744 8.5318,0 10.14661,0 11.51345,0 22.35356,-1.1274 34.94942,-1.1274 3.00641,0 -0.37579,-0.375801 1.12741,1.1274 0.90443,0.904436 12.57586,1.301854 10.14659,-1.1274 -0.82264,-0.822642 -10.13772,-10.128874 -10.14659,-10.146606 -1.19612,-2.392246 -3.82862,-7.210817 -5.63702,-9.019207 -0.62691,-0.626928 -2.60099,-1.819794 -3.3822,-3.382203 -1.75188,-3.503795 -1.44939,-8.213802 -4.50961,-11.274008 -0.37579,-0.3758 -3.00638,-0.7516 -3.38219,-1.127401 -2.77575,-2.775744 -2.25481,-17.0109242 -2.25481,-12.4014084"
       id="san-juan"><title
         id="title6">SAn Juan</title></path><path
       style="fill:#c8c4b7;fill-opacity:0.497278;stroke-width:20"
       d="m 741.82972,4.5096033 2.2548,55.2426387 20.29324,-2.2548 22.54801,11.274008 7.89181,11.274008 c 1.879,3.006402 4.0515,5.848201 5.637,9.019207 0.23768,0.475354 -1.1274,0.595939 -1.1274,1.127401 0,1.252268 -0.79719,7.094611 0,7.891805 1.07229,1.072285 4.88683,1.504625 5.63701,2.254799 1.13431,1.13431 2.40261,2.32871 4.5096,3.38221 2.10448,1.05224 5.78732,-1.05225 7.8918,0 2.56882,1.2844 7.60442,10.69923 9.01921,13.52881 1.54583,3.09165 -2.34971,12.30649 0,14.65621 0.26573,0.26573 0.86167,-0.26574 1.1274,0 0.76509,0.76509 1.1274,35.3743 1.1274,40.58643 0,1.43391 0.91269,8.10651 0,9.0192 -1.3153,1.3153 -3.1943,2.0669 -4.5096,3.3822 -0.53146,0.53147 0.53146,1.72334 0,2.25481 -1.6855,1.6855 -3.31697,6.73179 -5.637,7.8918 -0.74819,0.37409 -9.01426,3.3723 -9.01921,3.3822 -1.53729,3.07458 0.16379,19.65719 1.1274,22.54802 1.96131,5.88393 0,32.94326 0,41.71383 0,3.12332 0.15695,5.3231 -1.1274,7.89181 -1.76105,3.52209 0,35.37264 0,42.84123 0,31.18553 -1.1274,61.74116 -1.1274,92.44687 H 967.3099 l 3.38221,-69.89886 13.52881,-2.2548 -1.12741,-329.2010367"
       id="cordoba"><title
         id="title17">Cordoba</title></path><path
       style="fill:#c8c4b7;fill-opacity:0.497278;stroke-width:20"
       d="M 729.42833,56.370039 727.17352,5.6370039 615.56084,4.5096033 l 3.3822,9.0192067 c 0,0 6.76442,13.52881 7.8918,11.274008 1.12742,-2.254802 7.89181,10.146608 7.89181,10.146608 l 5.637,9.019206 6.76442,6.764404 7.8918,11.274009 h 15.78362 l 9.01919,4.509604 6.76442,-2.254803 19.16581,-1.1274 4.50961,-4.509604 z"
       id="la-rioja"><title
         id="title20">la-rioja</title></path><path
       style="fill:#c8c4b7;fill-opacity:0.497278;stroke-width:20"
       d="m 969.56469,420.52049 -161.21833,-2.25478 2.25481,119.50449 -313.41742,-2.25481 3.38222,178.12932 33.822,1.12739 4.50962,6.76442 h 3.38219 l 2.25481,6.76439 4.50961,3.38222 2.2548,7.89181 419.3931,1.12739 z"
       id="la-pampa"><title
         id="title18">la-pampa</title></path><path
       style="fill:#c8c4b7;fill-opacity:0.497278;stroke-width:20"
       d="m 308.90781,613.30604 -7.89181,-11.274 -11.274,-12.40142 V 577.2292 l -15.78361,-15.78361 -2.25481,-9.0192 h -14.6562 V 562.573 l -3.3822,1.12739 1.1274,20.29323 -16.91101,-1.12739 -1.1274,7.8918 -5.637,2.25478 -15.78362,2.25481 2.25481,10.14661 5.637,2.25481 -1.1274,4.50961 -13.52881,3.38219 1.1274,21.42062 4.5096,5.637 -7.8918,3.38219 v 7.89181 l 2.2548,20.29322 -6.76441,9.0192 1.1274,7.89181 6.76441,6.76441 v 24.80281 l -6.76441,2.25481 1.12741,13.5288 284.105,3.3822 -1.12741,-23.67539 h -10.14659 l -7.89181,-3.38223 -4.50961,-7.8918 h -14.65622 l -5.637,-9.0192 -5.637,2.25481 -10.14661,1.12739 v -5.637 l -6.76439,1.12739 -5.63701,-4.50959 -9.01922,-3.38222 -5.637,-6.76439 -7.8918,-6.76442 h -29.31242 l -16.91101,-9.01919 -14.65622,-13.52881 2.25481,-16.911 -10.14662,-3.38222 -4.50958,-4.50959 -1.12742,-10.14661 z"
       id="neuquen"><title
         id="title19">neuquen</title></path><path
       style="fill:#c8c4b7;fill-opacity:0.497278;stroke-width:20"
       d="m 498.31116,722.66391 v 16.91103 l 40.58643,2.25478 -2.25481,-5.637 -3.3822,-2.25481 -2.2548,-6.76439 -22.548,-1.12741 z"
       id="resto"><title
         id="title22">resto</title></path><path
       style="fill:#c8c4b7;fill-opacity:0.497278;stroke-width:20"
       d="m 485.80825,710.29726 -0.87691,-187.65877 161.35149,2.63073 2.63073,-9.64603 4.38454,-2.63072 -0.87691,-35.95333 7.0153,1.75384 -1.75385,-78.04501 -5.26145,-12.27675 -7.89218,-7.8922 -1.75384,-6.13836 -4.38454,-0.87691 -1.75382,-19.29202 -2.63073,-2.63075 -1.75381,-25.43037 5.26145,-5.26148 v -12.27675 l -4.38454,-7.01526 -2.63076,-6.13839 -3.50763,-7.89218 -8.76909,-6.13838 h -5.26147 l -0.87691,-20.16893 v -7.89219 h -7.89218 l -2.63075,-5.26146 -2.63073,-0.87691 -2.63072,-14.03057 -3.50764,-0.8769 0.87691,-34.1995 -6.13838,-1.75382 v -34.1995 l 7.01529,0.87691 -2.63072,-12.27674 -4.38457,-7.01529 -3.50764,-0.87691 -1.75381,-11.39983 -5.26146,-3.50764 v -10.52292 h -5.26147 l -0.87691,-12.27675 -9.64602,-0.87691 v -3.50764 l -25.43038,-3.507638 -7.8922,-5.261462 -6.13836,0.876912 -36.83024,-6.138371 -15.78438,16.661299 -8.76911,9.64601 -42.09169,0.87691 -2.63072,-21.92276 -12.27675,-7.89219 -5.26145,-5.261461 -6.13839,4.38455 -6.13836,8.769101 -11.39983,1.753823 -7.01527,3.507639 -7.8922,0.876911 -5.26146,9.646017 -2.63075,1.75382 1.75382,20.16893 -5.26145,0.87691 -2.63073,5.26146 -4.38454,0.87691 -11.39984,2.63073 -7.8922,4.38455 -12.27675,2.63074 1.75382,6.13837 4.38457,6.13837 3.50763,1.75382 3.50764,7.01528 5.26148,2.63073 -1.75382,9.64601 h -7.8922 l -2.63073,5.26146 2.63073,7.89219 v 10.52293 l 15.78438,5.26146 h 6.13838 l 2.63073,1.75382 2.63072,12.27674 3.50764,1.75382 -5.26145,5.26146 0.8769,10.52293 -4.38454,6.13837 -5.26148,0.87691 0.87691,22.79965 v 9.64602 l 0.87691,12.27675 5.26148,2.63072 -9.64602,1.75382 3.50763,13.15365 6.13839,7.89221 -0.87691,7.89217 -6.13839,3.50766 0.87691,4.38455 -6.13836,1.75381 v 5.26148 l -5.26148,2.63073 v 3.50763 l -10.5229,6.13836 -2.63075,5.26148 v 1.75382 l -3.50763,6.13836 v 3.50766 l -3.50764,4.38454 -5.26145,0.87691 0.87691,9.64602 2.63073,4.38454 -4.38455,3.50763 0.87691,7.0153 -6.13839,5.26145 v 6.13839 h -1.75381 l -8.76911,6.13836 4.38457,17.53819 -8.76912,5.26148 -2.63072,5.26145 2.63072,3.50764 1.75382,7.8922 -0.87691,13.15365 3.50764,3.50764 v 4.38454 l -4.38455,6.13839 2.63073,12.27674 2.63072,2.63073 1.75385,15.78438 -4.38457,0.87691 0.87691,12.27674 3.50766,3.50764 -7.0153,10.52293 5.26145,3.50763 4.38457,16.66129 5.26145,2.63075 7.0153,0.87691 0.87691,18.4151 7.01527,5.26146 1.75381,7.01529 5.26148,0.87691 2.63073,8.76911 11.39983,4.38454 0.87691,8.76911 4.38455,3.50764 7.8922,4.38454 4.38454,5.26148 1.75382,21.04583 2.63072,3.50763 10.52293,4.38457 h 28.06113 l 6.13838,4.38455 10.52291,2.63072 v 2.63073 l 13.15365,1.75381 0.87691,9.64602 15.78438,6.13839 11.39984,2.63073 9.64602,3.50763 13.15365,3.50763 5.26145,3.50767 z"
       id="mendoza"><title
         id="title16"> Mendoza</title></path><path
       style="fill:#c8c4b7;fill-opacity:0.497278;stroke-width:20"
       d="m 584.8991,64.014444 v 11.399833 h -3.50763 l 0.87691,33.322583 5.26145,3.50765 0.87691,3.50764 1.75384,9.64601 5.26145,0.87691 -0.87691,7.89219 3.50764,4.38455 0.8769,7.01528 5.26148,2.63073 0.87691,20.16894 h -7.01529 v 21.04585 l 2.63072,4.38455 v 7.01528 l 3.50766,15.78438 v 10.52292 l 6.13836,5.26147 v 5.26145 l 5.26145,10.52293 7.89221,3.50764 v 17.53819 l 8.76911,7.8922 7.89217,7.0153 3.50764,11.39981 h 2.63075 l 2.63073,8.76911 0.8769,15.78438 -3.50763,4.38454 -2.63075,3.50767 v 14.03056 l 5.26148,5.26145 v 13.15365 l 4.38454,5.26146 0.87691,3.50766 4.38457,4.38454 0.87691,9.64602 5.26145,1.75382 v 4.38454 l 4.38454,7.01529 3.50766,83.30647 h -6.13839 l 0.87691,7.01527 -4.38454,0.87691 0.87691,33.3226 128.90579,0.87691 4.38457,-1.75382 -1.75384,-332.34898 h 7.8922 l 0.87691,-4.38455 h 5.26145 v -12.27674 l 7.01529,-0.87691 -1.75381,-28.06113 5.26145,-2.63073 V 128.9058 h -5.26145 v -14.90747 l -17.5382,-0.87691 -7.0153,-7.8922 -0.8769,-20.168931 -12.27675,-2.630731 -0.87691,-3.507639 -7.8922,-1.75382 -1.75382,-2.630731 h -6.13836 v -3.507642 l -32.44567,-0.876909 -1.75384,2.630731 -1.75382,-1.753822 h -16.66129 v 2.630731 l -41.21478,1.75382 -4.38454,-7.89219 -28.93803,1.753819 -4.38457,-6.13837 -24.55347,0.876908 z"
       id="san-luis"><title
         id="title21">san-luis</title></path><path
       style="opacity:1;fill:#6c6753;fill-opacity:0.497278;stroke-width:19.1195"
       d="m 463.31237,104.12176 -11.75711,13.96154 -24.24898,-1.46964 -2.93928,-3.67409 V 92.364675 l -3.67408,2.204455 -12.4919,-8.817816 -2.93929,-6.613362 -3.67408,-0.734817 0.73483,3.674089 -7.3482,2.939272 -4.4089,3.67409 v 2.939272 l -5.14371,-0.73482 -4.40892,-2.93927 -4.40891,0.734818 h -0.73483 l -8.08298,10.287449 -5.87854,-1.469636 -0.73483,3.674091 -0.7348,5.87855 -8.08301,11.75708 v 3.67409 l 2.20446,5.14373 -0.73483,1.46963 2.20446,7.34817 -2.93929,3.67409 -10.28744,1.46964 -0.7348,2.93927 -2.20446,0.73482 -9.55265,-2.93927 h -5.87854 l -2.93928,3.67409 v 4.40891 l -1.46962,3.67409 -4.40891,-5.14373 -2.93926,-3.67409 -2.93928,2.20446 -0.73483,2.93927 v 4.40891 l 3.67411,3.67408 -1.46966,3.67409 1.46966,5.14373 2.93926,4.40891 2.20445,4.40891 3.67408,-4.40891 5.14374,1.46963 5.14374,-1.46963 4.40888,2.20445 h 6.61337 l 6.61336,2.93928 10.28745,-7.34819 8.08301,-5.14373 2.93927,-2.93927 0.73483,-4.4089 1.46963,-4.4089 3.67408,-2.20446 8.083,6.61336 5.87854,5.87854 v 3.67409 l 2.93927,5.87855 2.93929,5.14372 4.40891,3.67409 7.34817,8.08299 5.87854,5.87855 h 11.02227 l 5.14371,-3.67409 7.3482,-9.55263 5.14371,-8.81782 h 2.20444 l 9.55266,-19.10526 -2.93929,-9.55264 6.61337,-6.61336 V 126.1663 l 8.81782,-8.81782 v -5.87854 z"
       id="las-heras"><title
         id="title23">Las Heras</title></path><path
       style="opacity:1;fill:#6c6753;fill-opacity:0.497278;stroke-width:20"
       d="m 463.50089,103.76885 6.91793,-5.380602 -3.84329,-4.611949 3.84329,-3.074633 6.14926,1.537316 2.30597,3.074633 4.61195,0.768657 4.61196,-3.074633 3.07461,-1.537316 h 6.91793 l 10.76121,-5.380607 10.76122,5.380607 6.91792,1.537316 7.6866,3.843293 5.38059,4.611948 6.91793,-0.76866 8.45524,0.76866 h 6.14926 l 3.07464,4.61195 0.76867,3.84329 5.38059,4.61195 6.14926,6.91792 5.38062,10.76122 1.53731,9.99255 3.07464,9.2239 3.84329,5.38061 v 21.52243 l 0.76867,11.52987 -0.76867,3.84329 -69.9479,-9.2239 -3.84328,-27.67169 H 505.7771 l -19.98512,-0.76866 -3.84331,0.76866 -9.22388,7.68658 -0.76867,3.84329 v 5.38061 l -13.83585,-6.91792 -6.9179,-0.76866 h -3.84331 l 6.14928,-13.83585 -3.07464,-8.45524 5.38059,-6.91792 2.30598,-9.2239 2.30597,-3.84329 3.07465,-5.38061 2.30597,-3.84329 z"
       id="lavalle"><title
         id="title24">lavalle</title></path><path
       style="opacity:1;fill:#6c6753;fill-opacity:0.497278;stroke-width:20"
       d="m 328.98569,169.87346 19.21648,5.38061 13.06718,-6.14927 9.99255,-8.45524 2.30598,-9.2239 h 3.84328 l 6.91793,5.38061 2.30597,6.14926 v 4.61195 l 6.14927,3.8433 0.76866,7.68658 11.52988,6.14926 5.3806,6.14927 10.76121,1.53731 9.99257,-4.61195 5.38059,-6.14926 0.76867,-3.07463 v 9.22389 l -1.53731,2.30598 1.53731,4.61195 3.84328,1.53732 9.99258,1.53731 2.30597,2.30598 1.53731,6.14926 -4.61195,8.45524 v 4.61195 l -9.22391,8.45524 -6.91792,-3.07463 -3.84329,-0.76866 -11.52988,-8.45524 -3.07461,0.76866 -6.14927,-5.38061 -6.91792,-9.99255 -9.22391,-1.53732 -7.68659,-1.53732 -3.07462,-1.53731 -6.14926,-8.45525 h -4.61195 l -5.38061,11.52988 -8.45524,9.99256 -4.61195,9.2239 -3.84329,5.3806 -13.06719,-10.76121 -3.84329,6.14926 -7.68658,5.38061 -2.30598,-5.38061 -2.30597,-7.68658 -0.76866,-9.99255 -4.61195,-6.91793 6.91792,-1.53731 0.76866,-7.68659 0.76866,-6.14926 -3.84329,-6.91793 3.84329,-3.07463 z"
       id="lujan-de-cuyo"><title
         id="title25">Luján de Cuyo</title></path><path
       style="opacity:1;fill:#6c6753;fill-opacity:0.497278;stroke-width:20"
       d="m 436.59784,173.71675 7.6866,-3.07463 8.45523,-3.84329 3.84329,2.30597 13.06719,3.84329 -0.76867,3.84329 -12.29852,23.05975 -5.38059,-1.53732 -13.06719,-1.53731 v -1.53732 l -3.07465,-5.38061 0.76867,-4.61195 v -4.61195 z"
       id="ciudad"><title
         id="title26">Ciudad de Mendoza</title></path><path
       style="opacity:1;fill:#6c6753;fill-opacity:0.497278;stroke-width:20"
       d="m 515.76964,169.87346 h -13.06719 v 13.06719 l -14.60449,7.68658 -0.76867,13.06719 -12.29852,-6.14927 -6.91793,-3.84329 -6.14926,0.76866 -1.53734,-3.07463 6.14929,-7.68658 4.61193,-7.68658 v -9.2239 l 12.29854,-9.2239 32.28364,1.53731 1.53731,0.76866 z"
       id="san-martin"><title
         id="title27">San Martín</title></path><path
       style="opacity:1;fill:#6c6753;fill-opacity:0.497278;stroke-width:20"
       d="m 553.4339,190.62723 36.89559,3.07463 3.07462,7.68659 -0.76865,11.52987 3.07462,4.61195 v 10.76121 l 2.30598,4.61195 3.84331,6.14926 3.07462,5.38061 5.38062,3.84329 -0.76867,5.38061 4.61195,4.61195 3.84328,4.61195 c 0,0 0,10.76122 0,13.83584 0,3.07464 6.91793,9.99257 6.91793,9.99257 l 7.6866,6.14926 -0.76867,6.14926 4.61195,7.68659 -4.61195,7.68657 -3.84328,2.30598 -29.97769,-1.53731 -0.76864,-16.14183 -33.05231,2.30597 -2.30597,-33.82094 -16.14184,-1.53734 -0.76864,-43.04485 z"
       id="la-paz"><title
         id="title28">La Paz</title></path><path
       style="opacity:1;fill:#6c6753;fill-opacity:0.497278;stroke-width:20"
       d="m 552.66523,190.62723 -34.58961,-8.45524 -0.76867,-13.06719 -16.14181,0.76866 4.61196,8.45524 -1.53734,4.61195 -3.07462,4.61195 -11.52988,3.84329 v 99.92557 l -6.14926,2.30598 v 16.1418 l 4.61196,-1.53731 h 6.91792 l 2.30595,3.07465 49.19414,1.53731 h 4.61195 l 6.91793,-10.76122 4.61195,-0.76867 -0.76866,-34.58961 H 544.21 v -42.2762 z"
       id="santa-rosa"><title
         id="title29">Santa Rosa</title></path><path
       style="opacity:1;fill:#6c6753;fill-opacity:0.497278;stroke-width:20"
       d="m 455.81429,205.23174 10.76124,-4.61195 6.9179,4.61195 13.83586,6.91792 v -8.45524 l -9.22391,-2.30597 -10.76121,-7.68659 -9.2239,0.76866 -3.07462,5.38061 z"
       id="junin"><title
         id="title30">Junín</title></path><path
       style="opacity:1;fill:#6c6753;fill-opacity:0.497278;stroke-width:20"
       d="m 487.32929,212.14966 0.76867,22.29109 -28.44036,3.07463 4.61195,25.36572 -42.2762,-18.4478 0.76866,-5.38061 6.14926,-0.76865 3.07462,-3.84329 4.61195,-4.61195 4.61195,-1.53732 2.30598,-1.53731 6.14926,-3.8433 3.84331,-13.83584 11.52986,-6.91793 6.14926,2.30598 6.91792,4.61195 z"
       id="rivadavia"><title
         id="title31">Rivadavia</title></path><path
       style="opacity:1;fill:#6c6753;fill-opacity:0.497278;stroke-width:20"
       d="m 488.09796,234.44075 -28.44036,3.07463 4.61195,26.13438 -43.04487,-17.67914 v 5.38061 l -4.61195,5.3806 -4.61196,3.8433 -3.07461,0.76865 -3.07465,5.38061 -5.38059,1.53731 -8.45524,0.76867 -0.76866,8.45523 h -7.68657 -6.91793 l -15.37317,0.76867 h -10.76121 l -11.52988,-1.53733 -2.30597,12.29854 5.38059,5.3806 -8.45524,0.76866 1.53734,9.22391 3.07461,6.91793 3.07465,4.61192 0.76864,3.84331 -6.9179,3.84329 7.68657,9.99254 5.38062,3.84331 2.30597,0.76864 3.84329,8.45524 3.84328,-0.76864 6.91793,5.38059 8.45524,7.6866 7.68659,7.68657 5.38059,0.76867 15.37317,-6.14927 13.06719,-4.61195 1.53731,-13.83585 6.14928,-16.14181 h 9.99255 8.45523 l 2.30598,-0.76867 4.61195,1.53731 0.76867,-6.91793 8.45524,-3.07461 11.52985,-2.30598 11.52988,-0.76867 0.76867,-3.07461 0.76864,-15.37317 7.68659,-2.30597 z"
       id="san-carlos"><title
         id="title32">San Carlos</title></path><path
       style="opacity:1;fill:#6c6753;fill-opacity:0.497278;stroke-width:20"
       d="m 347.4335,227.52282 20.75378,1.53732 h 9.22388 l 8.45524,1.53732 5.38062,2.30597 9.2239,6.14926 9.99255,5.38061 8.45523,0.76866 3.84331,-4.61195 6.9179,-3.07463 6.14929,-3.84329 2.30598,-4.61195 -4.61195,-2.30597 -8.45524,-6.14927 -12.29855,-6.91793 -9.2239,-6.14926 -4.61195,-6.14926 -12.29853,-1.53732 -5.38059,-2.30598 -5.38062,-8.45524 -3.84328,0.76866 -3.84329,9.2239 -7.68659,9.2239 -3.84329,5.3806 z"
       id="tupungato"><title
         id="title33">Tupungato</title></path><path
       style="opacity:1;fill:#6c6753;fill-opacity:0.497278;stroke-width:20"
       d="m 347.4335,226.75417 15.37316,3.07463 11.52988,0.76866 h 9.99255 l 17.67914,9.22389 8.45524,3.07464 h 7.68659 l 0.76864,-1.53732 v 4.61195 l 3.07465,3.84329 -0.76867,4.61195 -9.99255,6.91792 -9.2239,3.8433 -4.61195,5.3806 h -3.84329 l -5.38062,6.14926 -23.8284,0.76866 h -19.21645 l -6.91793,-0.76866 -0.76864,-9.99255 V 253.6572 l 4.61193,-7.68658 3.07464,-6.14927 5.38062,-3.84329 z"
       id="tunuyan"><title
         id="title34">Tunuyán</title></path><path
       style="opacity:1;fill:#6c6753;fill-opacity:0.497278;stroke-width:20"
       d="m 629.53105,312.84389 3.07465,9.2239 -0.76867,9.99254 1.53731,9.22391 3.07464,10.76121 -12.29854,-0.76867 -14.6045,8.45524 -23.05974,-4.61193 h -9.2239 l -6.91793,1.53731 h -14.60449 l -6.14927,45.35083 1.53731,14.6045 v 16.14183 l 6.14926,13.06719 6.14926,13.06719 4.61196,9.99254 13.83585,9.2239 6.14926,9.99258 13.83586,9.22387 3.07462,9.99258 3.07464,5.38059 v 8.45526 H 486.56062 l -3.84328,-19.21647 -9.22391,-15.37317 -6.14926,-21.52242 -16.1418,-6.14926 -15.37317,-13.83586 -28.44035,-3.07462 -14.60452,-3.07464 H 378.9485 l -9.99258,-13.83583 -12.29852,-13.83586 -10.76121,-4.61195 -26.90304,-19.98512 -6.91793,-6.91792 -10.76122,-3.07462 13.06719,-19.98512 7.6866,-9.2239 -1.53734,-3.84329 2.30598,-6.91792 6.14926,-6.14926 h 9.99257 l 44.58219,34.58961 29.20899,-10.76121 10.76121,-26.90305 25.36574,-2.30597 1.53731,-4.61196 28.44035,-5.38059 6.91793,-6.91793 h 7.68657 l 8.45524,3.07465 49.96277,0.76864 12.29855,-12.29852 29.209,0.76864 3.07464,12.29855 z"
       id="san-rafael"><title
         id="title35">San Rafael</title></path><path
       style="opacity:1;fill:#6c6753;fill-opacity:0.497278;stroke-width:20"
       d="m 635.68032,352.04545 0.76866,14.6045 1.53731,4.61195 13.06719,12.29855 1.53731,12.29852 5.38062,7.68657 0.76867,73.02254 h -4.61196 l 0.76864,32.28363 -6.14926,9.22391 -1.5373,5.38059 -39.20157,-3.07462 -2.30598,-10.76121 -5.38062,-13.06719 -9.22387,-6.91793 -13.06719,-16.14183 -9.99257,-3.07461 -16.91048,-33.05231 v -15.37316 l -3.07464,-21.52243 9.99257,-44.58218 11.52985,1.5373 17.67915,-0.76864 15.37316,2.30598 12.29855,-5.38062 13.83583,-4.61195 z"
       id="general-alvear"><title
         id="title36">General Alvear</title></path><path
       style="opacity:1;fill:#6c6753;fill-opacity:0.497278;stroke-width:20"
       d="m 483.486,518.84429 2.30598,188.32123 -16.9105,-10.76121 -20.75376,-6.14926 -17.67914,-4.61196 -12.29852,-3.84328 V 671.0386 l -15.37316,-1.53731 -0.76867,-3.84331 -14.6045,-6.14926 -16.14183,-0.76864 h -10.76121 l -14.6045,-7.6866 -3.07464,-24.59707 -13.83586,-9.22388 v -7.68659 l -12.29852,-4.61195 -3.07462,-11.52988 h -3.07464 l -7.6866,-9.99255 H 301.314 l -3.07461,-23.8284 -11.52988,-0.76867 -4.61195,-18.44778 -3.07465,-0.76867 4.61195,-10.76121 -1.5373,-4.61195 v -13.83586 h 2.30597 l -0.76867,-12.29852 -3.07461,-6.91793 -0.76867,-8.45523 3.07464,-6.91793 -2.30597,-6.91793 -0.76867,-9.22388 -5.38062,-19.98511 14.60452,-5.38062 -5.38062,-19.21645 9.22391,-6.91793 6.91793,-13.83583 1.5373,-17.67914 9.99258,3.84328 6.9179,8.45524 12.29855,9.2239 19.21644,8.45524 8.45524,6.14926 3.07464,6.14926 16.14181,16.14183 12.29855,6.91793 6.14926,-1.53733 39.20156,4.61195 12.29853,10.76121 18.4478,11.52988 9.22391,24.59707 5.38059,9.99255 z"
       id="malargue"><title
         id="title37">Malargue</title></path></g></svg>
